NotoSansThaana-Regular.ufo
<glyph name="exclam" format="2">
  <advance width="411.75"/>
  <unicode hex="0021"/>
  <outline>
    <contour>
      <point x="163" y="204" type="line"/>
      <point x="238" y="204" type="line"/>
      <point x="358" y="714" type="line"/>
      <point x="262" y="714" type="line"/>
    </contour>
    <contour>
      <point x="162" y="-9" type="curve" smooth="yes"/>
      <point x="200" y="-9"/>
      <point x="224" y="18"/>
      <point x="224" y="58" type="curve" smooth="yes"/>
      <point x="224" y="83"/>
      <point x="208" y="100"/>
      <point x="177" y="100" type="curve" smooth="yes"/>
      <point x="135" y="100"/>
      <point x="114" y="68"/>
      <point x="114" y="32" type="curve" smooth="yes"/>
      <point x="114" y="9"/>
      <point x="128" y="-9"/>
    </contour>
  </outline>
</glyph>
<glyph name="quotedbl" format="2">
  <advance width="364"/>
  <unicode hex="0022"/>
  <outline>
    <contour>
      <point x="267" y="482" type="line"/>
      <point x="321" y="482" type="line"/>
      <point x="380" y="714" type="line"/>
      <point x="308" y="714" type="line"/>
    </contour>
    <contour>
      <point x="117" y="482" type="line"/>
      <point x="170" y="482" type="line"/>
      <point x="230" y="714" type="line"/>
      <point x="158" y="714" type="line"/>
    </contour>
  </outline>
</glyph>
<glyph name="quotesingle" format="2">
  <advance width="196.75"/>
  <unicode hex="0027"/>
  <outline>
    <contour>
      <point x="109" y="482" type="line"/>
      <point x="162" y="482" type="line"/>
      <point x="221" y="714" type="line"/>
      <point x="149" y="714" type="line"/>
    </contour>
  </outline>
</glyph>
<glyph name="parenleft" format="2">
  <advance width="480"/>
  <unicode hex="0028"/>
  <outline>
    <contour>
      <point x="180" y="-158" type="curve"/>
      <point x="252" y="-158" type="line"/>
      <point x="210" y="-74"/>
      <point x="188" y="31"/>
      <point x="188" y="131" type="curve" smooth="yes"/>
      <point x="188" y="361"/>
      <point x="286" y="568"/>
      <point x="439" y="722" type="curve"/>
      <point x="358" y="722" type="line"/>
      <point x="209" y="574"/>
      <point x="111" y="371"/>
      <point x="111" y="134" type="curve" smooth="yes"/>
      <point x="111" y="28"/>
      <point x="136" y="-80"/>
    </contour>
  </outline>
</glyph>
<glyph name="parenright" format="2">
  <advance width="500"/>
  <unicode hex="0029"/>
  <outline>
    <contour>
      <point x="19" y="-158" type="curve"/>
      <point x="100" y="-158" type="line"/>
      <point x="249" y="-9"/>
      <point x="345" y="193"/>
      <point x="345" y="430" type="curve" smooth="yes"/>
      <point x="345" y="536"/>
      <point x="322" y="642"/>
      <point x="277" y="722" type="curve"/>
      <point x="204" y="722" type="line"/>
      <point x="246" y="638"/>
      <point x="269" y="533"/>
      <point x="269" y="433" type="curve" smooth="yes"/>
      <point x="269" y="204"/>
      <point x="172" y="-4"/>
    </contour>
  </outline>
</glyph>
<glyph name="comma" format="2">
  <advance width="372.625"/>
  <unicode hex="002C"/>
  <outline>
    <contour>
      <point x="185" y="-3" type="curve" smooth="yes"/>
      <point x="231" y="-3"/>
      <point x="246" y="13"/>
      <point x="246" y="44" type="curve" smooth="yes"/>
      <point x="246" y="73"/>
      <point x="236" y="79"/>
      <point x="201" y="87" type="curve"/>
      <point x="201" y="107"/>
      <point x="227" y="173"/>
      <point x="255" y="222" type="curve"/>
      <point x="200" y="249" type="line"/>
      <point x="165" y="194"/>
      <point x="124" y="97"/>
      <point x="124" y="44" type="curve" smooth="yes"/>
      <point x="124" y="8"/>
      <point x="148" y="-3"/>
    </contour>
  </outline>
</glyph>
<glyph name="period" format="2">
  <advance width="372.625"/>
  <unicode hex="002E"/>
  <outline>
    <contour>
      <point x="156" y="-10" type="curve" smooth="yes"/>
      <point x="206" y="-10"/>
      <point x="228" y="5"/>
      <point x="228" y="56" type="curve" smooth="yes"/>
      <point x="228" y="91"/>
      <point x="213" y="102"/>
      <point x="176" y="102" type="curve" smooth="yes"/>
      <point x="130" y="102"/>
      <point x="108" y="86"/>
      <point x="108" y="38" type="curve" smooth="yes"/>
      <point x="108" y="3"/>
      <point x="122" y="-10"/>
    </contour>
  </outline>
</glyph>
<glyph name="zero" format="2">
  <advance width="576"/>
  <unicode hex="0030"/>
  <outline>
    <contour>
      <point x="524" y="359" type="curve" smooth="yes"/>
      <point x="524" y="581"/>
      <point x="464" y="725"/>
      <point x="289" y="725" type="curve" smooth="yes"/>
      <point x="112" y="725"/>
      <point x="52" y="577"/>
      <point x="52" y="359" type="curve" smooth="yes"/>
      <point x="52" y="114"/>
      <point x="131" y="-10"/>
      <point x="288" y="-10" type="curve" smooth="yes"/>
      <point x="454" y="-10"/>
      <point x="524" y="118"/>
    </contour>
    <contour>
      <point x="141" y="359" type="curve" smooth="yes"/>
      <point x="141" y="535"/>
      <point x="175" y="652"/>
      <point x="289" y="652" type="curve" smooth="yes"/>
      <point x="405" y="652"/>
      <point x="435" y="539"/>
      <point x="435" y="359" type="curve" smooth="yes"/>
      <point x="435" y="160"/>
      <point x="394" y="64"/>
      <point x="288" y="64" type="curve" smooth="yes"/>
      <point x="187" y="64"/>
      <point x="141" y="159"/>
    </contour>
  </outline>
</glyph>
<glyph name="one" format="2">
  <advance width="576"/>
  <unicode hex="0031"/>
  <outline>
    <contour>
      <point x="373" y="0" type="line"/>
      <point x="373" y="714" type="line"/>
      <point x="293" y="714" type="line"/>
      <point x="79" y="551" type="line"/>
      <point x="127" y="491" type="line"/>
      <point x="234" y="573" type="line" smooth="yes"/>
      <point x="255" y="589"/>
      <point x="268" y="601"/>
      <point x="285" y="617" type="curve"/>
      <point x="283" y="581"/>
      <point x="283" y="527"/>
      <point x="283" y="485" type="curve" smooth="yes"/>
      <point x="283" y="0" type="line"/>
    </contour>
  </outline>
</glyph>
<glyph name="two" format="2">
  <advance width="576"/>
  <unicode hex="0032"/>
  <outline>
    <contour>
      <point x="513" y="0" type="line"/>
      <point x="513" y="76" type="line"/>
      <point x="164" y="76" type="line"/>
      <point x="164" y="78" type="line"/>
      <point x="313" y="233" type="line" smooth="yes"/>
      <point x="422" y="346"/>
      <point x="487" y="414"/>
      <point x="487" y="536" type="curve" smooth="yes"/>
      <point x="487" y="648"/>
      <point x="406" y="724"/>
      <point x="280" y="724" type="curve" smooth="yes"/>
      <point x="188" y="724"/>
      <point x="121" y="691"/>
      <point x="59" y="638" type="curve"/>
      <point x="108" y="579" type="line"/>
      <point x="163" y="625"/>
      <point x="218" y="648"/>
      <point x="271" y="648" type="curve" smooth="yes"/>
      <point x="348" y="648"/>
      <point x="398" y="604"/>
      <point x="398" y="525" type="curve" smooth="yes"/>
      <point x="398" y="437"/>
      <point x="356" y="381"/>
      <point x="254" y="276" type="curve" smooth="yes"/>
      <point x="48" y="62" type="line"/>
      <point x="48" y="0" type="line"/>
    </contour>
  </outline>
</glyph>
<glyph name="three" format="2">
  <advance width="576"/>
  <unicode hex="0033"/>
  <outline>
    <contour>
      <point x="491" y="554" type="curve" smooth="yes"/>
      <point x="491" y="664"/>
      <point x="409" y="724"/>
      <point x="279" y="724" type="curve" smooth="yes"/>
      <point x="177" y="724"/>
      <point x="107" y="694"/>
      <point x="48" y="651" type="curve"/>
      <point x="87" y="590" type="line"/>
      <point x="135" y="624"/>
      <point x="196" y="651"/>
      <point x="267" y="651" type="curve" smooth="yes"/>
      <point x="349" y="651"/>
      <point x="404" y="614"/>
      <point x="404" y="537" type="curve" smooth="yes"/>
      <point x="404" y="448"/>
      <point x="328" y="405"/>
      <point x="221" y="405" type="curve" smooth="yes"/>
      <point x="152" y="405" type="line"/>
      <point x="152" y="335" type="line"/>
      <point x="221" y="335" type="line" smooth="yes"/>
      <point x="350" y="335"/>
      <point x="419" y="296"/>
      <point x="419" y="203" type="curve" smooth="yes"/>
      <point x="419" y="118"/>
      <point x="362" y="63"/>
      <point x="237" y="63" type="curve" smooth="yes"/>
      <point x="170" y="63"/>
      <point x="97" y="81"/>
      <point x="42" y="109" type="curve"/>
      <point x="42" y="31" type="line"/>
      <point x="97" y="7"/>
      <point x="162" y="-10"/>
      <point x="247" y="-10" type="curve" smooth="yes"/>
      <point x="425" y="-10"/>
      <point x="512" y="78"/>
      <point x="512" y="198" type="curve" smooth="yes"/>
      <point x="512" y="302"/>
      <point x="448" y="359"/>
      <point x="336" y="373" type="curve"/>
      <point x="336" y="376" type="line"/>
      <point x="423" y="394"/>
      <point x="491" y="457"/>
    </contour>
  </outline>
</glyph>
<glyph name="four" format="2">
  <advance width="576"/>
  <unicode hex="0034"/>
  <outline>
    <contour>
      <point x="564" y="173" type="line"/>
      <point x="564" y="243" type="line"/>
      <point x="451" y="243" type="line"/>
      <point x="451" y="717" type="line"/>
      <point x="367" y="717" type="line"/>
      <point x="22" y="238" type="line"/>
      <point x="22" y="173" type="line"/>
      <point x="364" y="173" type="line"/>
      <point x="364" y="0" type="line"/>
      <point x="451" y="0" type="line"/>
      <point x="451" y="173" type="line"/>
    </contour>
    <contour>
      <point x="364" y="243" type="line"/>
      <point x="107" y="243" type="line"/>
      <point x="308" y="520" type="line" smooth="yes"/>
      <point x="333" y="555"/>
      <point x="345" y="572"/>
      <point x="363" y="605" type="curve"/>
      <point x="366" y="605" type="line"/>
      <point x="364" y="572"/>
      <point x="364" y="529"/>
      <point x="364" y="465" type="curve" smooth="yes"/>
    </contour>
  </outline>
</glyph>
<glyph name="five" format="2">
  <advance width="576"/>
  <unicode hex="0035"/>
  <outline>
    <contour>
      <point x="293" y="442" type="curve" smooth="yes"/>
      <point x="233" y="442"/>
      <point x="198" y="434"/>
      <point x="169" y="427" type="curve"/>
      <point x="188" y="638" type="line"/>
      <point x="474" y="638" type="line"/>
      <point x="474" y="714" type="line"/>
      <point x="112" y="714" type="line"/>
      <point x="83" y="372" type="line"/>
      <point x="122" y="350" type="line"/>
      <point x="162" y="362"/>
      <point x="204" y="371"/>
      <point x="257" y="371" type="curve" smooth="yes"/>
      <point x="370" y="371"/>
      <point x="428" y="314"/>
      <point x="428" y="223" type="curve" smooth="yes"/>
      <point x="428" y="121"/>
      <point x="358" y="63"/>
      <point x="246" y="63" type="curve" smooth="yes"/>
      <point x="178" y="63"/>
      <point x="111" y="84"/>
      <point x="64" y="109" type="curve"/>
      <point x="64" y="31" type="line"/>
      <point x="110" y="6"/>
      <point x="172" y="-10"/>
      <point x="252" y="-10" type="curve" smooth="yes"/>
      <point x="421" y="-10"/>
      <point x="518" y="77"/>
      <point x="518" y="225" type="curve" smooth="yes"/>
      <point x="518" y="366"/>
      <point x="429" y="442"/>
    </contour>
  </outline>
</glyph>
<glyph name="six" format="2">
  <advance width="576"/>
  <unicode hex="0036"/>
  <outline>
    <contour>
      <point x="56" y="303" type="curve" smooth="yes"/>
      <point x="56" y="125"/>
      <point x="136" y="-10"/>
      <point x="301" y="-10" type="curve" smooth="yes"/>
      <point x="444" y="-10"/>
      <point x="529" y="86"/>
      <point x="529" y="232" type="curve" smooth="yes"/>
      <point x="529" y="369"/>
      <point x="454" y="453"/>
      <point x="325" y="453" type="curve" smooth="yes"/>
      <point x="224" y="453"/>
      <point x="166" y="402"/>
      <point x="140" y="349" type="curve"/>
      <point x="136" y="349" type="line"/>
      <point x="144" y="568"/>
      <point x="234" y="654"/>
      <point x="381" y="654" type="curve" smooth="yes"/>
      <point x="424" y="654"/>
      <point x="457" y="648"/>
      <point x="482" y="641" type="curve"/>
      <point x="482" y="714" type="line"/>
      <point x="455" y="721"/>
      <point x="418" y="726"/>
      <point x="383" y="726" type="curve" smooth="yes"/>
      <point x="157" y="726"/>
      <point x="56" y="570"/>
    </contour>
    <contour>
      <point x="299" y="63" type="curve" smooth="yes"/>
      <point x="179" y="63"/>
      <point x="148" y="187"/>
      <point x="148" y="255" type="curve" smooth="yes"/>
      <point x="148" y="311"/>
      <point x="206" y="382"/>
      <point x="303" y="382" type="curve" smooth="yes"/>
      <point x="397" y="382"/>
      <point x="442" y="324"/>
      <point x="442" y="231" type="curve" smooth="yes"/>
      <point x="442" y="125"/>
      <point x="390" y="63"/>
    </contour>
  </outline>
</glyph>
<glyph name="seven" format="2">
  <advance width="576"/>
  <unicode hex="0037"/>
  <outline>
    <contour>
      <point x="153" y="0" type="line"/>
      <point x="246" y="0" type="line"/>
      <point x="526" y="661" type="line"/>
      <point x="526" y="714" type="line"/>
      <point x="51" y="714" type="line"/>
      <point x="51" y="639" type="line"/>
      <point x="429" y="639" type="line"/>
    </contour>
  </outline>
</glyph>
<glyph name="eight" format="2">
  <advance width="576"/>
  <unicode hex="0038"/>
  <outline>
    <contour>
      <point x="288" y="724" type="curve" smooth="yes"/>
      <point x="163" y="724"/>
      <point x="75" y="662"/>
      <point x="75" y="556" type="curve" smooth="yes"/>
      <point x="75" y="463"/>
      <point x="140" y="415"/>
      <point x="218" y="378" type="curve"/>
      <point x="120" y="338"/>
      <point x="53" y="285"/>
      <point x="53" y="180" type="curve" smooth="yes"/>
      <point x="53" y="66"/>
      <point x="136" y="-10"/>
      <point x="285" y="-10" type="curve" smooth="yes"/>
      <point x="430" y="-10"/>
      <point x="522" y="65"/>
      <point x="522" y="185" type="curve" smooth="yes"/>
      <point x="522" y="284"/>
      <point x="449" y="341"/>
      <point x="350" y="380" type="curve"/>
      <point x="440" y="418"/>
      <point x="500" y="470"/>
      <point x="500" y="557" type="curve" smooth="yes"/>
      <point x="500" y="667"/>
      <point x="418" y="724"/>
    </contour>
    <contour>
      <point x="136" y="183" type="curve" smooth="yes"/>
      <point x="136" y="266"/>
      <point x="202" y="309"/>
      <point x="285" y="339" type="curve"/>
      <point x="307" y="330" type="line" smooth="yes"/>
      <point x="385" y="300"/>
      <point x="439" y="256"/>
      <point x="439" y="185" type="curve" smooth="yes"/>
      <point x="439" y="103"/>
      <point x="377" y="58"/>
      <point x="284" y="58" type="curve" smooth="yes"/>
      <point x="195" y="58"/>
      <point x="136" y="106"/>
    </contour>
    <contour>
      <point x="287" y="657" type="curve" smooth="yes"/>
      <point x="365" y="657"/>
      <point x="415" y="620"/>
      <point x="415" y="551" type="curve" smooth="yes"/>
      <point x="415" y="485"/>
      <point x="358" y="449"/>
      <point x="289" y="419" type="curve"/>
      <point x="212" y="448"/>
      <point x="160" y="485"/>
      <point x="160" y="550" type="curve" smooth="yes"/>
      <point x="160" y="618"/>
      <point x="214" y="657"/>
    </contour>
  </outline>
</glyph>
<glyph name="nine" format="2">
  <advance width="576"/>
  <unicode hex="0039"/>
  <outline>
    <contour>
      <point x="520" y="404" type="curve" smooth="yes"/>
      <point x="520" y="590"/>
      <point x="438" y="724"/>
      <point x="273" y="724" type="curve" smooth="yes"/>
      <point x="129" y="724"/>
      <point x="44" y="629"/>
      <point x="44" y="483" type="curve" smooth="yes"/>
      <point x="44" y="346"/>
      <point x="120" y="262"/>
      <point x="248" y="262" type="curve" smooth="yes"/>
      <point x="355" y="262"/>
      <point x="410" y="313"/>
      <point x="436" y="366" type="curve"/>
      <point x="439" y="366" type="line"/>
      <point x="432" y="156"/>
      <point x="343" y="62"/>
      <point x="185" y="62" type="curve" smooth="yes"/>
      <point x="148" y="62"/>
      <point x="112" y="68"/>
      <point x="86" y="75" type="curve"/>
      <point x="86" y="0" type="line"/>
      <point x="113" y="-6"/>
      <point x="154" y="-10"/>
      <point x="191" y="-10" type="curve" smooth="yes"/>
      <point x="402" y="-10"/>
      <point x="520" y="114"/>
    </contour>
    <contour>
      <point x="275" y="651" type="curve" smooth="yes"/>
      <point x="395" y="651"/>
      <point x="428" y="528"/>
      <point x="428" y="459" type="curve" smooth="yes"/>
      <point x="428" y="403"/>
      <point x="367" y="333"/>
      <point x="271" y="333" type="curve" smooth="yes"/>
      <point x="178" y="333"/>
      <point x="131" y="390"/>
      <point x="131" y="483" type="curve" smooth="yes"/>
      <point x="131" y="590"/>
      <point x="184" y="651"/>
    </contour>
  </outline>
</glyph>
<glyph name="question-ar" format="2">
  <advance width="479"/>
  <unicode hex="061F"/>
  <outline>
    <contour>
      <point x="211" y="208" type="curve"/>
      <point x="288" y="208" type="line"/>
      <point x="295" y="237" type="line" smooth="yes"/>
      <point x="314" y="314"/>
      <point x="301" y="362"/>
      <point x="248" y="410" type="curve" smooth="yes"/>
      <point x="218" y="437" type="line" smooth="yes"/>
      <point x="181" y="471"/>
      <point x="163" y="498"/>
      <point x="163" y="537" type="curve" smooth="yes"/>
      <point x="163" y="612"/>
      <point x="221" y="654"/>
      <point x="301" y="654" type="curve" smooth="yes"/>
      <point x="345" y="654"/>
      <point x="397" y="635"/>
      <point x="440" y="608" type="curve"/>
      <point x="485" y="675" type="line"/>
      <point x="432" y="706"/>
      <point x="371" y="724"/>
      <point x="303" y="724" type="curve" smooth="yes"/>
      <point x="161" y="724"/>
      <point x="82" y="645"/>
      <point x="82" y="537" type="curve" smooth="yes"/>
      <point x="82" y="473"/>
      <point x="110" y="433"/>
      <point x="152" y="397" type="curve" smooth="yes"/>
      <point x="176" y="376" type="line" smooth="yes"/>
      <point x="216" y="341"/>
      <point x="224" y="314"/>
      <point x="224" y="276" type="curve" smooth="yes"/>
      <point x="224" y="257"/>
      <point x="219" y="235"/>
    </contour>
    <contour>
      <point x="204" y="-9" type="curve" smooth="yes"/>
      <point x="244" y="-9"/>
      <point x="268" y="14"/>
      <point x="268" y="58" type="curve" smooth="yes"/>
      <point x="268" y="84"/>
      <point x="251" y="100"/>
      <point x="221" y="100" type="curve" smooth="yes"/>
      <point x="185" y="100"/>
      <point x="158" y="73"/>
      <point x="158" y="32" type="curve" smooth="yes"/>
      <point x="158" y="4"/>
      <point x="176" y="-9"/>
    </contour>
  </outline>
</glyph>
<glyph name="zero-ar" format="2">
  <advance width="284.75"/>
  <unicode hex="0660"/>
  <outline>
    <contour>
      <point x="154" y="212" type="curve"/>
      <point x="223" y="282" type="line"/>
      <point x="199" y="310"/>
      <point x="163" y="346"/>
      <point x="130" y="370" type="curve"/>
      <point x="63" y="298" type="line"/>
      <point x="97" y="270"/>
      <point x="122" y="246"/>
    </contour>
  </outline>
</glyph>
<glyph name="one-ar" format="2">
  <advance width="266.875"/>
  <unicode hex="0661"/>
  <outline>
    <contour>
      <point x="205" y="2" type="line"/>
      <point x="205" y="125"/>
      <point x="180" y="456"/>
      <point x="116" y="681" type="curve"/>
      <point x="35" y="660" type="line"/>
      <point x="94" y="440"/>
      <point x="124" y="69"/>
      <point x="124" y="-2" type="curve"/>
    </contour>
  </outline>
</glyph>
<glyph name="two-ar" format="2">
  <advance width="487.875"/>
  <unicode hex="0662"/>
  <outline>
    <contour>
      <point x="203" y="2" type="line"/>
      <point x="203" y="115"/>
      <point x="179" y="456"/>
      <point x="114" y="681" type="curve"/>
      <point x="35" y="660" type="line"/>
      <point x="94" y="440"/>
      <point x="124" y="69"/>
      <point x="124" y="-2" type="curve"/>
    </contour>
    <contour>
      <point x="258" y="445" type="curve" smooth="yes"/>
      <point x="388" y="445"/>
      <point x="448" y="503"/>
      <point x="461" y="665" type="curve"/>
      <point x="387" y="675" type="line"/>
      <point x="377" y="550"/>
      <point x="337" y="521"/>
      <point x="256" y="521" type="curve" smooth="yes"/>
      <point x="205" y="521"/>
      <point x="147" y="539"/>
      <point x="114" y="556" type="curve"/>
      <point x="124" y="476" type="line"/>
      <point x="157" y="462"/>
      <point x="205" y="445"/>
    </contour>
  </outline>
</glyph>
<glyph name="three-ar" format="2">
  <advance width="579.75"/>
  <unicode hex="0663"/>
  <outline>
    <contour>
      <point x="203" y="2" type="line"/>
      <point x="203" y="114"/>
      <point x="179" y="456"/>
      <point x="114" y="681" type="curve"/>
      <point x="35" y="660" type="line"/>
      <point x="94" y="440"/>
      <point x="124" y="69"/>
      <point x="124" y="-2" type="curve"/>
    </contour>
    <contour>
      <point x="228" y="421" type="curve" smooth="yes"/>
      <point x="277" y="421"/>
      <point x="312" y="453"/>
      <point x="325" y="504" type="curve"/>
      <point x="312" y="504" type="line"/>
      <point x="317" y="455"/>
      <point x="352" y="425"/>
      <point x="419" y="425" type="curve" smooth="yes"/>
      <point x="509" y="425"/>
      <point x="553" y="479"/>
      <point x="553" y="551" type="curve" smooth="yes"/>
      <point x="553" y="583"/>
      <point x="544" y="630"/>
      <point x="523" y="679" type="curve"/>
      <point x="461" y="660" type="line"/>
      <point x="474" y="626"/>
      <point x="483" y="591"/>
      <point x="483" y="565" type="curve" smooth="yes"/>
      <point x="483" y="534"/>
      <point x="471" y="498"/>
      <point x="409" y="498" type="curve" smooth="yes"/>
      <point x="366" y="498"/>
      <point x="348" y="516"/>
      <point x="348" y="549" type="curve" smooth="yes"/>
      <point x="348" y="564"/>
      <point x="351" y="585"/>
      <point x="363" y="650" type="curve"/>
      <point x="301" y="657" type="line"/>
      <point x="283" y="527"/>
      <point x="263" y="494"/>
      <point x="221" y="494" type="curve" smooth="yes"/>
      <point x="180" y="494"/>
      <point x="155" y="528"/>
      <point x="151" y="542" type="curve" smooth="yes"/>
      <point x="114" y="674" type="line"/>
      <point x="127" y="495" type="line"/>
      <point x="136" y="465"/>
      <point x="170" y="421"/>
    </contour>
  </outline>
</glyph>
<glyph name="four-ar" format="2">
  <advance width="464"/>
  <unicode hex="0664"/>
  <outline>
    <contour>
      <point x="435" y="96" type="line"/>
      <point x="391" y="81"/>
      <point x="343" y="69"/>
      <point x="281" y="69" type="curve" smooth="yes"/>
      <point x="187" y="69"/>
      <point x="135" y="104"/>
      <point x="135" y="159" type="curve" smooth="yes"/>
      <point x="135" y="222"/>
      <point x="214" y="282"/>
      <point x="316" y="329" type="curve"/>
      <point x="308" y="394" type="line"/>
      <point x="234" y="376"/>
      <point x="129" y="386"/>
      <point x="129" y="443" type="curve" smooth="yes"/>
      <point x="129" y="498"/>
      <point x="216" y="580"/>
      <point x="329" y="611" type="curve"/>
      <point x="305" y="683" type="line"/>
      <point x="132" y="632"/>
      <point x="55" y="517"/>
      <point x="55" y="443" type="curve" smooth="yes"/>
      <point x="55" y="381"/>
      <point x="123" y="346"/>
      <point x="200" y="340" type="curve"/>
      <point x="96" y="277"/>
      <point x="53" y="211"/>
      <point x="53" y="148" type="curve" smooth="yes"/>
      <point x="53" y="58"/>
      <point x="129" y="-6"/>
      <point x="278" y="-6" type="curve" smooth="yes"/>
      <point x="345" y="-6"/>
      <point x="403" y="5"/>
      <point x="454" y="28" type="curve"/>
    </contour>
  </outline>
</glyph>
<glyph name="five-ar" format="2">
  <advance width="525.125"/>
  <unicode hex="0665"/>
  <outline>
    <contour>
      <point x="261" y="0" type="curve" smooth="yes"/>
      <point x="405" y="0"/>
      <point x="463" y="95"/>
      <point x="463" y="234" type="curve" smooth="yes"/>
      <point x="463" y="400"/>
      <point x="383" y="515"/>
      <point x="273" y="515" type="curve" smooth="yes"/>
      <point x="161" y="515"/>
      <point x="63" y="394"/>
      <point x="63" y="222" type="curve" smooth="yes"/>
      <point x="63" y="63"/>
      <point x="132" y="0"/>
    </contour>
    <contour>
      <point x="258" y="75" type="curve" smooth="yes"/>
      <point x="183" y="75"/>
      <point x="138" y="116"/>
      <point x="138" y="217" type="curve" smooth="yes"/>
      <point x="138" y="333"/>
      <point x="194" y="438"/>
      <point x="270" y="438" type="curve" smooth="yes"/>
      <point x="345" y="438"/>
      <point x="385" y="334"/>
      <point x="385" y="224" type="curve" smooth="yes"/>
      <point x="385" y="155"/>
      <point x="362" y="75"/>
    </contour>
  </outline>
</glyph>
<glyph name="six-ar" format="2">
  <advance width="491.75"/>
  <unicode hex="0666"/>
  <outline>
    <contour>
      <point x="353" y="0" type="curve"/>
      <point x="435" y="7" type="line"/>
      <point x="405" y="147"/>
      <point x="362" y="421"/>
      <point x="365" y="670" type="curve"/>
      <point x="291" y="643" type="line"/>
      <point x="285" y="627" type="line"/>
      <point x="284" y="350"/>
      <point x="336" y="75"/>
    </contour>
    <contour>
      <point x="326" y="587" type="curve"/>
      <point x="365" y="670" type="line"/>
      <point x="270" y="647"/>
      <point x="123" y="650"/>
      <point x="32" y="682" type="curve"/>
      <point x="18" y="604" type="line"/>
      <point x="102" y="570"/>
      <point x="243" y="566"/>
    </contour>
  </outline>
</glyph>
<glyph name="seven-ar" format="2">
  <advance width="566.375"/>
  <unicode hex="0667"/>
  <outline>
    <contour>
      <point x="246" y="-3" type="line"/>
      <point x="324" y="9" type="line"/>
      <point x="365" y="198"/>
      <point x="460" y="464"/>
      <point x="549" y="653" type="curve"/>
      <point x="477" y="684" type="line"/>
      <point x="409" y="534"/>
      <point x="314" y="282"/>
      <point x="276" y="78" type="curve"/>
    </contour>
    <contour>
      <point x="246" y="-3" type="curve"/>
      <point x="321" y="13" type="line"/>
      <point x="291" y="89" type="line"/>
      <point x="246" y="260"/>
      <point x="163" y="516"/>
      <point x="92" y="683" type="curve"/>
      <point x="18" y="655" type="line"/>
      <point x="98" y="475"/>
      <point x="195" y="180"/>
    </contour>
  </outline>
</glyph>
<glyph name="eight-ar" format="2">
  <advance width="570.75"/>
  <unicode hex="0668"/>
  <outline>
    <contour>
      <point x="90" y="-4" type="line"/>
      <point x="159" y="145"/>
      <point x="255" y="395"/>
      <point x="294" y="599" type="curve"/>
      <point x="321" y="680" type="line"/>
      <point x="243" y="663" type="line"/>
      <point x="202" y="475"/>
      <point x="107" y="215"/>
      <point x="18" y="27" type="curve"/>
    </contour>
    <contour>
      <point x="480" y="-8" type="curve"/>
      <point x="554" y="20" type="line"/>
      <point x="471" y="201"/>
      <point x="372" y="490"/>
      <point x="322" y="680" type="curve"/>
      <point x="246" y="659" type="line"/>
      <point x="277" y="588" type="line"/>
      <point x="322" y="416"/>
      <point x="407" y="159"/>
    </contour>
  </outline>
</glyph>
<glyph name="nine-ar" format="2">
  <advance width="498"/>
  <unicode hex="0669"/>
  <outline>
    <contour>
      <point x="364" y="0" type="curve"/>
      <point x="441" y="15" type="line"/>
      <point x="417" y="110"/>
      <point x="400" y="256"/>
      <point x="392" y="394" type="curve" smooth="yes"/>
      <point x="384" y="534"/>
      <point x="356" y="679"/>
      <point x="218" y="679" type="curve" smooth="yes"/>
      <point x="109" y="679"/>
      <point x="28" y="590"/>
      <point x="28" y="481" type="curve" smooth="yes"/>
      <point x="28" y="370"/>
      <point x="104" y="308"/>
      <point x="218" y="308" type="curve" smooth="yes"/>
      <point x="257" y="308"/>
      <point x="301" y="314"/>
      <point x="344" y="330" type="curve"/>
      <point x="329" y="403" type="line"/>
      <point x="300" y="391"/>
      <point x="265" y="384"/>
      <point x="228" y="384" type="curve" smooth="yes"/>
      <point x="143" y="384"/>
      <point x="111" y="438"/>
      <point x="111" y="493" type="curve" smooth="yes"/>
      <point x="111" y="551"/>
      <point x="153" y="601"/>
      <point x="210" y="601" type="curve" smooth="yes"/>
      <point x="294" y="601"/>
      <point x="306" y="484"/>
      <point x="312" y="388" type="curve" smooth="yes"/>
      <point x="317" y="309"/>
      <point x="329" y="124"/>
    </contour>
  </outline>
</glyph>
<glyph name="percent-ar" format="2">
  <advance width="513.375"/>
  <unicode hex="066A"/>
  <outline>
    <contour>
      <point x="132" y="-20" type="line"/>
      <point x="451" y="665" type="line"/>
      <point x="385" y="694" type="line"/>
      <point x="68" y="7" type="line"/>
    </contour>
    <contour>
      <point x="392" y="-14" type="curve"/>
      <point x="456" y="49" type="line"/>
      <point x="436" y="73"/>
      <point x="410" y="100"/>
      <point x="382" y="121" type="curve"/>
      <point x="320" y="55" type="line"/>
      <point x="348" y="31"/>
      <point x="365" y="14"/>
    </contour>
    <contour>
      <point x="144" y="555" type="curve"/>
      <point x="207" y="618" type="line"/>
      <point x="188" y="642"/>
      <point x="162" y="669"/>
      <point x="134" y="691" type="curve"/>
      <point x="72" y="624" type="line"/>
      <point x="100" y="600"/>
      <point x="117" y="583"/>
    </contour>
  </outline>
</glyph>
<glyph name="decimalseparator-ar" format="2">
  <advance width="290.75"/>
  <unicode hex="066B"/>
  <outline>
    <contour>
      <point x="67" y="-142" type="line"/>
      <point x="118" y="-142" type="line"/>
      <point x="138" y="-109"/>
      <point x="202" y="2"/>
      <point x="202" y="51" type="curve" smooth="yes"/>
      <point x="202" y="85"/>
      <point x="173" y="111"/>
      <point x="141" y="111" type="curve" smooth="yes"/>
      <point x="107" y="111"/>
      <point x="81" y="82"/>
      <point x="81" y="51" type="curve" smooth="yes"/>
      <point x="81" y="25"/>
      <point x="97" y="5"/>
      <point x="120" y="0" type="curve"/>
    </contour>
  </outline>
</glyph>
<glyph name="thousandseparator-ar" format="2">
  <advance width="285.5"/>
  <unicode hex="066C"/>
  <outline>
    <contour>
      <point x="107" y="0" type="curve" smooth="yes"/>
      <point x="141" y="0"/>
      <point x="167" y="29"/>
      <point x="167" y="61" type="curve" smooth="yes"/>
      <point x="167" y="86"/>
      <point x="151" y="106"/>
      <point x="129" y="111" type="curve"/>
      <point x="181" y="253" type="line"/>
      <point x="131" y="253" type="line"/>
      <point x="110" y="220"/>
      <point x="47" y="109"/>
      <point x="47" y="60" type="curve" smooth="yes"/>
      <point x="47" y="26"/>
      <point x="76" y="0"/>
    </contour>
  </outline>
</glyph>
<glyph name="asterisk-ar" format="2">
  <advance width="514.25"/>
  <unicode hex="066D"/>
  <outline>
    <contour>
      <point x="413" y="-1" type="line"/>
      <point x="418" y="3" type="line"/>
      <point x="328" y="192" type="line"/>
      <point x="498" y="279" type="line"/>
      <point x="496" y="287" type="line"/>
      <point x="304" y="273" type="line"/>
      <point x="261" y="458" type="line"/>
      <point x="254" y="458" type="line"/>
      <point x="210" y="273" type="line"/>
      <point x="19" y="287" type="line"/>
      <point x="17" y="279" type="line"/>
      <point x="186" y="190" type="line"/>
      <point x="97" y="4" type="line"/>
      <point x="102" y="0" type="line"/>
      <point x="256" y="131" type="line"/>
    </contour>
  </outline>
</glyph>
<glyph name="haa-thaana" format="2">
  <advance width="312"/>
  <unicode hex="0780"/>
  <anchor x="25" y="-2" name="b.uni07A8"/>
  <anchor x="242" y="408" name="t.uni07A6"/>
  <outline>
    <contour>
      <point x="335" y="370" type="curve"/>
      <point x="274" y="418" type="line"/>
      <point x="205" y="338"/>
      <point x="82" y="196"/>
      <point x="-12" y="93" type="curve"/>
      <point x="9" y="73"/>
      <point x="33" y="51"/>
      <point x="51" y="38" type="curve"/>
      <point x="134" y="133"/>
      <point x="269" y="290"/>
    </contour>
  </outline>
</glyph>
<glyph name="shaviyani-thaana" format="2">
  <advance width="520"/>
  <unicode hex="0781"/>
  <anchor x="132" y="0" name="b.uni07A8"/>
  <anchor x="390" y="421" name="t.uni07A6"/>
  <outline>
    <contour>
      <point x="255" y="241" type="line"/>
      <point x="290" y="229"/>
      <point x="325" y="224"/>
      <point x="359" y="224" type="curve" smooth="yes"/>
      <point x="400" y="224"/>
      <point x="446" y="229"/>
      <point x="481" y="278" type="curve" smooth="yes"/>
      <point x="501" y="306"/>
      <point x="521" y="357"/>
      <point x="535" y="408" type="curve"/>
      <point x="473" y="416" type="line"/>
      <point x="467" y="400"/>
      <point x="454" y="368"/>
      <point x="446" y="351" type="curve" smooth="yes"/>
      <point x="434" y="325"/>
      <point x="423" y="316"/>
      <point x="410" y="311" type="curve" smooth="yes"/>
      <point x="397" y="306"/>
      <point x="384" y="302"/>
      <point x="360" y="302" type="curve" smooth="yes"/>
      <point x="327" y="302"/>
      <point x="295" y="311"/>
      <point x="272" y="320" type="curve"/>
    </contour>
    <component base="_part.haa" xOffset="-103"/>
  </outline>
</glyph>
<glyph name="noonu-thaana" format="2">
  <advance width="650"/>
  <unicode hex="0782"/>
  <anchor x="164" y="0" name="b.uni07A8"/>
  <anchor x="462" y="414" name="t.uni07A6"/>
  <outline>
    <contour>
      <point x="243" y="238" type="line"/>
      <point x="269" y="228"/>
      <point x="291" y="224"/>
      <point x="319" y="224" type="curve" smooth="yes"/>
      <point x="366" y="224"/>
      <point x="406" y="237"/>
      <point x="435" y="275" type="curve" smooth="yes"/>
      <point x="464" y="314"/>
      <point x="482" y="350"/>
      <point x="499" y="400" type="curve"/>
      <point x="437" y="409" type="line"/>
      <point x="430" y="392"/>
      <point x="418" y="365"/>
      <point x="409" y="347" type="curve" smooth="yes"/>
      <point x="399" y="327"/>
      <point x="390" y="317"/>
      <point x="379" y="311" type="curve" smooth="yes"/>
      <point x="368" y="305"/>
      <point x="356" y="301"/>
      <point x="336" y="301" type="curve" smooth="yes"/>
      <point x="309" y="301"/>
      <point x="287" y="306"/>
      <point x="259" y="319" type="curve"/>
    </contour>
    <contour>
      <point x="376" y="250" type="line"/>
      <point x="411" y="232"/>
      <point x="448" y="226"/>
      <point x="485" y="226" type="curve" smooth="yes"/>
      <point x="525" y="226"/>
      <point x="578" y="232"/>
      <point x="611" y="278" type="curve" smooth="yes"/>
      <point x="632" y="307"/>
      <point x="652" y="363"/>
      <point x="665" y="410" type="curve"/>
      <point x="604" y="418" type="line"/>
      <point x="598" y="402"/>
      <point x="585" y="369"/>
      <point x="577" y="353" type="curve" smooth="yes"/>
      <point x="564" y="327"/>
      <point x="554" y="318"/>
      <point x="542" y="313" type="curve" smooth="yes"/>
      <point x="529" y="308"/>
      <point x="518" y="304"/>
      <point x="493" y="304" type="curve" smooth="yes"/>
      <point x="458" y="304"/>
      <point x="424" y="316"/>
      <point x="401" y="327" type="curve"/>
    </contour>
    <component base="_part.haa" xOffset="-103"/>
  </outline>
</glyph>
<glyph name="raa-thaana" format="2">
  <advance width="484"/>
  <unicode hex="0783"/>
  <anchor x="135" y="0" name="b.uni07A8"/>
  <anchor x="363" y="415" name="t.uni07A6"/>
  <outline>
    <contour>
      <point x="-18" y="-32" type="curve"/>
      <point x="-4" y="-46"/>
      <point x="18" y="-68"/>
      <point x="45" y="-87" type="curve"/>
      <point x="131" y="10"/>
      <point x="221" y="112"/>
      <point x="260" y="159" type="curve" smooth="yes"/>
      <point x="276" y="178"/>
      <point x="286" y="190"/>
      <point x="277" y="224" type="curve"/>
      <point x="244" y="200" type="line"/>
      <point x="295" y="187"/>
      <point x="345" y="177"/>
      <point x="408" y="166" type="curve"/>
      <point x="433" y="236" type="line"/>
      <point x="381" y="243"/>
      <point x="348" y="249"/>
      <point x="319" y="255" type="curve"/>
      <point x="320" y="238" type="line"/>
      <point x="325" y="250"/>
      <point x="331" y="260"/>
      <point x="353" y="285" type="curve" smooth="yes"/>
      <point x="427" y="369" type="line"/>
      <point x="370" y="421" type="line"/>
      <point x="285" y="324" type="line" smooth="yes"/>
      <point x="264" y="301"/>
      <point x="255" y="290"/>
      <point x="255" y="277" type="curve" smooth="yes"/>
      <point x="255" y="268"/>
      <point x="260" y="255"/>
      <point x="280" y="244" type="curve"/>
      <point x="299" y="260" type="line"/>
      <point x="241" y="272"/>
      <point x="182" y="289"/>
      <point x="127" y="306" type="curve"/>
      <point x="119" y="284"/>
      <point x="109" y="254"/>
      <point x="107" y="235" type="curve"/>
      <point x="143" y="224"/>
      <point x="178" y="215"/>
      <point x="227" y="204" type="curve"/>
      <point x="224" y="234" type="line"/>
      <point x="150" y="151"/>
      <point x="55" y="45"/>
    </contour>
  </outline>
</glyph>
<glyph name="baa-thaana" format="2">
  <advance width="546"/>
  <unicode hex="0784"/>
  <anchor x="149" y="0" name="b.uni07A8"/>
  <anchor x="358" y="415" name="t.uni07A6"/>
  <outline>
    <contour>
      <point x="51" y="188" type="curve" smooth="yes"/>
      <point x="51" y="102"/>
      <point x="112" y="40"/>
      <point x="224" y="40" type="curve" smooth="yes"/>
      <point x="375" y="40"/>
      <point x="514" y="156"/>
      <point x="514" y="283" type="curve" smooth="yes"/>
      <point x="514" y="351"/>
      <point x="474" y="414"/>
      <point x="398" y="414" type="curve" smooth="yes"/>
      <point x="339" y="414"/>
      <point x="286" y="376"/>
      <point x="248" y="301" type="curve"/>
      <point x="286" y="268" type="line"/>
      <point x="314" y="309"/>
      <point x="348" y="336"/>
      <point x="384" y="336" type="curve" smooth="yes"/>
      <point x="419" y="336"/>
      <point x="444" y="312"/>
      <point x="444" y="280" type="curve" smooth="yes"/>
      <point x="444" y="208"/>
      <point x="339" y="117"/>
      <point x="226" y="117" type="curve" smooth="yes"/>
      <point x="157" y="117"/>
      <point x="120" y="151"/>
      <point x="120" y="193" type="curve" smooth="yes"/>
      <point x="120" y="233"/>
      <point x="158" y="270"/>
      <point x="204" y="270" type="curve" smooth="yes"/>
      <point x="242" y="270"/>
      <point x="271" y="243"/>
      <point x="271" y="201" type="curve" smooth="yes"/>
      <point x="271" y="157"/>
      <point x="248" y="124"/>
      <point x="201" y="93" type="curve"/>
      <point x="255" y="78" type="line"/>
      <point x="318" y="112"/>
      <point x="338" y="166"/>
      <point x="338" y="217" type="curve" smooth="yes"/>
      <point x="338" y="302"/>
      <point x="274" y="347"/>
      <point x="204" y="347" type="curve" smooth="yes"/>
      <point x="118" y="347"/>
      <point x="51" y="276"/>
    </contour>
  </outline>
</glyph>
<glyph name="lhaviyani-thaana" format="2">
  <advance width="383"/>
  <unicode hex="0785"/>
  <anchor x="65" y="0" name="b.uni07A8"/>
  <anchor x="268" y="414" name="t.uni07A6"/>
  <outline>
    <contour>
      <point x="57" y="94" type="curve"/>
      <point x="75" y="77"/>
      <point x="100" y="56"/>
      <point x="121" y="40" type="curve"/>
      <point x="218" y="149"/>
      <point x="346" y="298"/>
      <point x="406" y="369" type="curve"/>
      <point x="345" y="417" type="line"/>
      <point x="301" y="371"/>
      <point x="253" y="335"/>
      <point x="213" y="335" type="curve" smooth="yes"/>
      <point x="188" y="335"/>
      <point x="181" y="348"/>
      <point x="181" y="368" type="curve" smooth="yes"/>
      <point x="181" y="380"/>
      <point x="183" y="395"/>
      <point x="186" y="412" type="curve"/>
      <point x="121" y="408" type="line"/>
      <point x="119" y="391"/>
      <point x="118" y="377"/>
      <point x="118" y="359" type="curve" smooth="yes"/>
      <point x="118" y="307"/>
      <point x="141" y="272"/>
      <point x="191" y="272" type="curve" smooth="yes"/>
      <point x="218" y="272"/>
      <point x="244" y="287"/>
      <point x="278" y="318" type="curve"/>
      <point x="270" y="328" type="line"/>
      <point x="227" y="278"/>
      <point x="116" y="157"/>
    </contour>
  </outline>
</glyph>
<glyph name="kaafu-thaana" format="2">
  <advance width="437"/>
  <unicode hex="0786"/>
  <anchor x="105" y="0" name="b.uni07A8"/>
  <anchor x="287" y="414" name="t.uni07A6"/>
  <outline>
    <contour>
      <point x="73" y="365" type="line"/>
      <point x="83" y="261"/>
      <point x="83" y="171"/>
      <point x="83" y="65" type="curve"/>
      <point x="173" y="40" type="line"/>
      <point x="245" y="121"/>
      <point x="375" y="269"/>
      <point x="460" y="366" type="curve"/>
      <point x="395" y="417" type="line"/>
      <point x="317" y="322"/>
      <point x="209" y="196"/>
      <point x="153" y="132" type="curve"/>
      <point x="179" y="142" type="line"/>
      <point x="150" y="142" type="line"/>
      <point x="158" y="132" type="line"/>
      <point x="161" y="186"/>
      <point x="165" y="309"/>
      <point x="161" y="379" type="curve"/>
    </contour>
  </outline>
</glyph>
<glyph name="alifu-thaana" format="2">
  <advance width="442"/>
  <unicode hex="0787"/>
  <anchor x="73" y="0" name="b.uni07A8"/>
  <anchor x="293" y="414" name="t.uni07A6"/>
  <outline>
    <contour>
      <point x="-12" y="97" type="curve"/>
      <point x="9" y="75"/>
      <point x="31" y="55"/>
      <point x="49" y="40" type="curve"/>
      <point x="120" y="122"/>
      <point x="213" y="230"/>
      <point x="285" y="320" type="curve"/>
      <point x="271" y="316" type="line"/>
      <point x="291" y="316" type="line"/>
      <point x="288" y="323" type="line"/>
      <point x="284" y="238"/>
      <point x="278" y="147"/>
      <point x="273" y="81" type="curve"/>
      <point x="363" y="86" type="line"/>
      <point x="365" y="142"/>
      <point x="367" y="307"/>
      <point x="367" y="400" type="curve"/>
      <point x="268" y="416" type="line"/>
      <point x="175" y="305"/>
      <point x="69" y="186"/>
    </contour>
  </outline>
</glyph>
<glyph name="vaavu-thaana" format="2">
  <advance width="424"/>
  <unicode hex="0788"/>
  <anchor x="161" y="0" name="b.uni07A8"/>
  <anchor x="278" y="415" name="t.uni07A6"/>
  <outline>
    <contour>
      <point x="35" y="-30" type="curve"/>
      <point x="54" y="-49"/>
      <point x="76" y="-71"/>
      <point x="97" y="-87" type="curve"/>
      <point x="174" y="-3"/>
      <point x="250" y="80"/>
      <point x="318" y="162" type="curve" smooth="yes"/>
      <point x="372" y="227"/>
      <point x="392" y="254"/>
      <point x="392" y="302" type="curve" smooth="yes"/>
      <point x="392" y="366"/>
      <point x="344" y="414"/>
      <point x="264" y="414" type="curve" smooth="yes"/>
      <point x="169" y="414"/>
      <point x="85" y="356"/>
      <point x="85" y="265" type="curve" smooth="yes"/>
      <point x="85" y="201"/>
      <point x="138" y="147"/>
      <point x="212" y="127" type="curve"/>
      <point x="257" y="172" type="line"/>
      <point x="202" y="187"/>
      <point x="163" y="208"/>
      <point x="163" y="253" type="curve" smooth="yes"/>
      <point x="163" y="304"/>
      <point x="223" y="340"/>
      <point x="276" y="340" type="curve" smooth="yes"/>
      <point x="304" y="340"/>
      <point x="316" y="328"/>
      <point x="316" y="309" type="curve" smooth="yes"/>
      <point x="316" y="289"/>
      <point x="312" y="270"/>
      <point x="261" y="212" type="curve" smooth="yes"/>
      <point x="204" y="148"/>
      <point x="112" y="49"/>
    </contour>
  </outline>
</glyph>
<glyph name="meemu-thaana" format="2">
  <advance width="384"/>
  <unicode hex="0789"/>
  <anchor x="54" y="0" name="b.uni07A8"/>
  <anchor x="260" y="414" name="t.uni07A6"/>
  <outline>
    <contour>
      <point x="85" y="95" type="curve"/>
      <point x="102" y="78"/>
      <point x="123" y="59"/>
      <point x="147" y="39" type="curve"/>
      <point x="242" y="150"/>
      <point x="319" y="240"/>
      <point x="376" y="309" type="curve"/>
      <point x="370" y="377" type="line"/>
      <point x="351" y="388"/>
      <point x="293" y="414"/>
      <point x="217" y="414" type="curve" smooth="yes"/>
      <point x="175" y="414"/>
      <point x="134" y="406"/>
      <point x="82" y="390" type="curve"/>
      <point x="84" y="370"/>
      <point x="87" y="348"/>
      <point x="93" y="323" type="curve"/>
      <point x="100" y="313" type="line"/>
      <point x="141" y="329"/>
      <point x="178" y="336"/>
      <point x="214" y="336" type="curve" smooth="yes"/>
      <point x="250" y="336"/>
      <point x="279" y="331"/>
      <point x="303" y="324" type="curve"/>
      <point x="289" y="340" type="line"/>
      <point x="289" y="312" type="line"/>
      <point x="299" y="331" type="line"/>
      <point x="255" y="282"/>
      <point x="147" y="163"/>
    </contour>
  </outline>
</glyph>
<glyph name="faafu-thaana" format="2">
  <advance width="395"/>
  <unicode hex="078A"/>
  <anchor x="152" y="0" name="b.uni07A8"/>
  <anchor x="244" y="414" name="t.uni07A6"/>
  <outline>
    <contour>
      <point x="10" y="-28" type="curve"/>
      <point x="27" y="-48"/>
      <point x="48" y="-69"/>
      <point x="69" y="-87" type="curve"/>
      <point x="151" y="-4"/>
      <point x="300" y="161"/>
      <point x="315" y="188" type="curve"/>
      <point x="315" y="200"/>
      <point x="310" y="230"/>
      <point x="302" y="244" type="curve"/>
      <point x="269" y="244"/>
      <point x="207" y="240"/>
      <point x="173" y="237" type="curve"/>
      <point x="213" y="220" type="line"/>
      <point x="250" y="259"/>
      <point x="283" y="294"/>
      <point x="306" y="321" type="curve"/>
      <point x="306" y="337"/>
      <point x="301" y="360"/>
      <point x="295" y="371" type="curve"/>
      <point x="266" y="371"/>
      <point x="214" y="367"/>
      <point x="188" y="364" type="curve"/>
      <point x="232" y="354" type="line"/>
      <point x="254" y="381"/>
      <point x="282" y="413"/>
      <point x="304" y="435" type="curve"/>
      <point x="261" y="476" type="line"/>
      <point x="229" y="439"/>
      <point x="185" y="392"/>
      <point x="151" y="357" type="curve"/>
      <point x="164" y="309" type="line"/>
      <point x="193" y="314"/>
      <point x="236" y="318"/>
      <point x="256" y="318" type="curve"/>
      <point x="246" y="345" type="line"/>
      <point x="221" y="316"/>
      <point x="170" y="259"/>
      <point x="133" y="221" type="curve"/>
      <point x="146" y="171" type="line"/>
      <point x="179" y="177"/>
      <point x="233" y="184"/>
      <point x="250" y="184" type="curve"/>
      <point x="247" y="214" type="line"/>
      <point x="188" y="153"/>
      <point x="80" y="43"/>
    </contour>
  </outline>
</glyph>
<glyph name="dhaalu-thaana" format="2">
  <advance width="517"/>
  <unicode hex="078B"/>
  <anchor x="143" y="0" name="b.uni07A8"/>
  <anchor x="295" y="414" name="t.uni07A6"/>
  <anchor x="272" y="422" name="top"/>
  <outline>
    <contour>
      <point x="-41" y="-30" type="curve"/>
      <point x="-21" y="-50"/>
      <point x="0" y="-70"/>
      <point x="21" y="-87" type="curve"/>
      <point x="97" y="-1"/>
      <point x="165" y="76"/>
      <point x="203" y="122" type="curve" smooth="yes"/>
      <point x="246" y="173"/>
      <point x="265" y="204"/>
      <point x="265" y="236" type="curve" smooth="yes"/>
      <point x="265" y="278"/>
      <point x="236" y="300"/>
      <point x="204" y="300" type="curve" smooth="yes"/>
      <point x="161" y="300"/>
      <point x="131" y="272"/>
      <point x="131" y="237" type="curve" smooth="yes"/>
      <point x="131" y="212"/>
      <point x="146" y="192"/>
      <point x="176" y="181" type="curve"/>
      <point x="179" y="212" type="line"/>
      <point x="161" y="189"/>
      <point x="142" y="168"/>
      <point x="118" y="142" type="curve" smooth="yes"/>
      <point x="81" y="101"/>
      <point x="11" y="25"/>
    </contour>
    <component base="_part.jav" xOffset="-24" yOffset="-75"/>
  </outline>
</glyph>
<glyph name="thaa-thaana" format="2">
  <advance width="459"/>
  <unicode hex="078C"/>
  <anchor x="130" y="0" name="b.uni07A8"/>
  <anchor x="317" y="414" name="t.uni07A6"/>
  <outline>
    <contour>
      <point x="-21" y="-8" type="curve"/>
      <point x="-3" y="-87" type="line"/>
      <point x="91" y="-80"/>
      <point x="174" y="-53"/>
      <point x="215" y="11" type="curve"/>
      <point x="217" y="22"/>
      <point x="218" y="33"/>
      <point x="218" y="43" type="curve" smooth="yes"/>
      <point x="218" y="97"/>
      <point x="164" y="153"/>
      <point x="123" y="186" type="curve"/>
      <point x="135" y="149" type="line"/>
      <point x="189" y="218"/>
      <point x="210" y="241"/>
      <point x="250" y="283" type="curve" smooth="yes"/>
      <point x="291" y="326"/>
      <point x="321" y="345"/>
      <point x="339" y="345" type="curve" smooth="yes"/>
      <point x="354" y="345"/>
      <point x="367" y="336"/>
      <point x="367" y="318" type="curve" smooth="yes"/>
      <point x="367" y="279"/>
      <point x="328" y="207"/>
      <point x="280" y="207" type="curve" smooth="yes"/>
      <point x="246" y="207"/>
      <point x="229" y="253"/>
      <point x="227" y="305" type="curve"/>
      <point x="180" y="283" type="line"/>
      <point x="190" y="190"/>
      <point x="229" y="127"/>
      <point x="292" y="127" type="curve" smooth="yes"/>
      <point x="370" y="127"/>
      <point x="436" y="224"/>
      <point x="436" y="311" type="curve" smooth="yes"/>
      <point x="436" y="371"/>
      <point x="399" y="414"/>
      <point x="345" y="414" type="curve" smooth="yes"/>
      <point x="297" y="414"/>
      <point x="251" y="398"/>
      <point x="185" y="326" type="curve" smooth="yes"/>
      <point x="147" y="285"/>
      <point x="117" y="252"/>
      <point x="71" y="199" type="curve"/>
      <point x="66" y="141" type="line"/>
      <point x="111" y="105"/>
      <point x="144" y="63"/>
      <point x="159" y="15" type="curve"/>
      <point x="170" y="70" type="line"/>
      <point x="137" y="15"/>
      <point x="69" y="-2"/>
    </contour>
  </outline>
</glyph>
<glyph name="laamu-thaana" format="2">
  <advance width="402"/>
  <unicode hex="078D"/>
  <anchor x="133" y="0" name="b.uni07A8"/>
  <anchor x="244" y="414" name="t.uni07A6"/>
  <outline>
    <contour>
      <point x="17" y="-32" type="curve"/>
      <point x="35" y="-51"/>
      <point x="58" y="-72"/>
      <point x="80" y="-88" type="curve"/>
      <point x="154" y="-5"/>
      <point x="291" y="153"/>
      <point x="346" y="220" type="curve"/>
      <point x="344" y="242"/>
      <point x="338" y="269"/>
      <point x="330" y="290" type="curve"/>
      <point x="292" y="290"/>
      <point x="217" y="285"/>
      <point x="160" y="281" type="curve"/>
      <point x="192" y="262" type="line"/>
      <point x="220" y="291"/>
      <point x="271" y="351"/>
      <point x="308" y="396" type="curve"/>
      <point x="255" y="438" type="line"/>
      <point x="218" y="396"/>
      <point x="151" y="322"/>
      <point x="108" y="276" type="curve"/>
      <point x="119" y="206" type="line"/>
      <point x="167" y="211"/>
      <point x="246" y="217"/>
      <point x="275" y="217" type="curve"/>
      <point x="284" y="260" type="line"/>
      <point x="236" y="208"/>
      <point x="95" y="53"/>
    </contour>
  </outline>
</glyph>
<glyph name="gaafu-thaana" format="2">
  <advance width="417"/>
  <unicode hex="078E"/>
  <anchor x="86" y="0" name="b.uni07A8"/>
  <anchor x="271" y="414" name="t.uni07A6"/>
  <outline>
    <contour>
      <point x="-2" y="57" type="curve"/>
      <point x="48" y="40"/>
      <point x="99" y="31"/>
      <point x="144" y="31" type="curve" smooth="yes"/>
      <point x="216" y="31"/>
      <point x="296" y="50"/>
      <point x="340" y="85" type="curve"/>
      <point x="345" y="97"/>
      <point x="354" y="131"/>
      <point x="354" y="154" type="curve" smooth="yes"/>
      <point x="354" y="191"/>
      <point x="291" y="264"/>
      <point x="202" y="324" type="curve"/>
      <point x="205" y="275" type="line"/>
      <point x="240" y="315"/>
      <point x="275" y="355"/>
      <point x="306" y="389" type="curve"/>
      <point x="253" y="432" type="line"/>
      <point x="213" y="389"/>
      <point x="178" y="352"/>
      <point x="144" y="318" type="curve"/>
      <point x="146" y="271" type="line"/>
      <point x="197" y="239"/>
      <point x="259" y="192"/>
      <point x="289" y="134" type="curve"/>
      <point x="296" y="147" type="line"/>
      <point x="258" y="122"/>
      <point x="207" y="110"/>
      <point x="151" y="110" type="curve" smooth="yes"/>
      <point x="114" y="110"/>
      <point x="70" y="117"/>
      <point x="19" y="137" type="curve"/>
      <point x="11" y="112"/>
      <point x="3" y="83"/>
    </contour>
  </outline>
</glyph>
<glyph name="gnaviyani-thaana" format="2">
  <advance width="573"/>
  <unicode hex="078F"/>
  <anchor x="34" y="-29" name="b.uni07A8"/>
  <anchor x="419" y="414" name="t.uni07A6"/>
  <outline>
    <contour>
      <point x="24" y="59" type="curve" smooth="yes"/>
      <point x="24" y="-26"/>
      <point x="82" y="-87"/>
      <point x="193" y="-87" type="curve" smooth="yes"/>
      <point x="233" y="-87"/>
      <point x="268" y="-82"/>
      <point x="309" y="-71" type="curve"/>
      <point x="308" y="-40"/>
      <point x="306" y="-13"/>
      <point x="304" y="8" type="curve"/>
      <point x="263" y="-4"/>
      <point x="225" y="-9"/>
      <point x="195" y="-9" type="curve" smooth="yes"/>
      <point x="134" y="-9"/>
      <point x="89" y="19"/>
      <point x="89" y="70" type="curve" smooth="yes"/>
      <point x="89" y="125"/>
      <point x="149" y="179"/>
      <point x="233" y="241" type="curve"/>
      <point x="172" y="288" type="line"/>
      <point x="94" y="217"/>
      <point x="24" y="145"/>
    </contour>
    <contour>
      <point x="168" y="238" type="line"/>
      <point x="195" y="227"/>
      <point x="216" y="223"/>
      <point x="245" y="223" type="curve" smooth="yes"/>
      <point x="290" y="223"/>
      <point x="328" y="240"/>
      <point x="358" y="275" type="curve" smooth="yes"/>
      <point x="388" y="310"/>
      <point x="406" y="350"/>
      <point x="422" y="395" type="curve"/>
      <point x="362" y="403" type="line"/>
      <point x="355" y="388"/>
      <point x="343" y="363"/>
      <point x="334" y="347" type="curve" smooth="yes"/>
      <point x="323" y="327"/>
      <point x="315" y="314"/>
      <point x="305" y="310" type="curve" smooth="yes"/>
      <point x="293" y="305"/>
      <point x="282" y="301"/>
      <point x="261" y="301" type="curve" smooth="yes"/>
      <point x="235" y="301"/>
      <point x="212" y="306"/>
      <point x="184" y="319" type="curve"/>
    </contour>
    <contour>
      <point x="303" y="251" type="line"/>
      <point x="337" y="233"/>
      <point x="374" y="227"/>
      <point x="411" y="227" type="curve" smooth="yes"/>
      <point x="450" y="227"/>
      <point x="502" y="233"/>
      <point x="534" y="279" type="curve" smooth="yes"/>
      <point x="554" y="307"/>
      <point x="575" y="359"/>
      <point x="588" y="402" type="curve"/>
      <point x="529" y="412" type="line"/>
      <point x="523" y="398"/>
      <point x="508" y="367"/>
      <point x="501" y="353" type="curve" smooth="yes"/>
      <point x="488" y="327"/>
      <point x="479" y="318"/>
      <point x="467" y="313" type="curve" smooth="yes"/>
      <point x="455" y="308"/>
      <point x="443" y="304"/>
      <point x="419" y="304" type="curve" smooth="yes"/>
      <point x="383" y="304"/>
      <point x="350" y="315"/>
      <point x="326" y="327" type="curve"/>
    </contour>
    <contour>
      <point x="123" y="297" type="curve" smooth="yes"/>
      <point x="123" y="248"/>
      <point x="178" y="239"/>
      <point x="220" y="237" type="curve"/>
      <point x="237" y="255"/>
      <point x="245" y="276"/>
      <point x="245" y="296" type="curve" smooth="yes"/>
      <point x="245" y="335"/>
      <point x="219" y="353"/>
      <point x="188" y="353" type="curve" smooth="yes"/>
      <point x="146" y="353"/>
      <point x="123" y="329"/>
    </contour>
  </outline>
</glyph>
<glyph name="seenu-thaana" format="2">
  <advance width="775"/>
  <unicode hex="0790"/>
  <anchor x="326" y="0" name="b.uni07A8"/>
  <anchor x="492" y="414" name="t.uni07A6"/>
  <outline>
    <contour>
      <point x="220" y="202" type="line"/>
      <point x="259" y="198"/>
      <point x="301" y="196"/>
      <point x="355" y="196" type="curve" smooth="yes"/>
      <point x="487" y="196"/>
      <point x="608" y="208"/>
      <point x="684" y="233" type="curve" smooth="yes"/>
      <point x="728" y="247"/>
      <point x="743" y="269"/>
      <point x="756" y="296" type="curve" smooth="yes"/>
      <point x="771" y="328"/>
      <point x="790" y="383"/>
      <point x="795" y="411" type="curve"/>
      <point x="734" y="419" type="line"/>
      <point x="724" y="391"/>
      <point x="715" y="369"/>
      <point x="706" y="350" type="curve" smooth="yes"/>
      <point x="694" y="324"/>
      <point x="685" y="313"/>
      <point x="648" y="303" type="curve" smooth="yes"/>
      <point x="606" y="292"/>
      <point x="522" y="276"/>
      <point x="377" y="276" type="curve" smooth="yes"/>
      <point x="317" y="276"/>
      <point x="283" y="277"/>
      <point x="243" y="282" type="curve"/>
    </contour>
    <contour>
      <point x="55" y="123" type="curve"/>
      <point x="74" y="104"/>
      <point x="95" y="86"/>
      <point x="118" y="70" type="curve"/>
      <point x="182" y="145"/>
      <point x="210" y="178"/>
      <point x="224" y="202" type="curve" smooth="yes"/>
      <point x="243" y="235"/>
      <point x="252" y="258"/>
      <point x="252" y="280" type="curve" smooth="yes"/>
      <point x="252" y="318"/>
      <point x="223" y="337"/>
      <point x="193" y="337" type="curve" smooth="yes"/>
      <point x="150" y="337"/>
      <point x="123" y="312"/>
      <point x="123" y="277" type="curve" smooth="yes"/>
      <point x="123" y="250"/>
      <point x="146" y="230"/>
      <point x="175" y="218" type="curve"/>
      <point x="163" y="246" type="line"/>
      <point x="136" y="213"/>
      <point x="96" y="168"/>
    </contour>
  </outline>
</glyph>
<glyph name="daviyani-thaana" format="2">
  <advance width="393"/>
  <unicode hex="0791"/>
  <anchor x="113" y="0" name="b.uni07A8"/>
  <anchor x="235" y="414" name="t.uni07A6"/>
  <outline>
    <contour>
      <point x="67" y="99" type="curve"/>
      <point x="78" y="31" type="line"/>
      <point x="141" y="4"/>
      <point x="202" y="-22"/>
      <point x="267" y="-49" type="curve"/>
      <point x="303" y="27" type="line"/>
      <point x="234" y="55"/>
      <point x="183" y="76"/>
      <point x="120" y="103" type="curve"/>
      <point x="126" y="50" type="line"/>
      <point x="203" y="126"/>
      <point x="254" y="178"/>
      <point x="271" y="198" type="curve"/>
      <point x="269" y="216"/>
      <point x="266" y="234"/>
      <point x="263" y="250" type="curve"/>
      <point x="248" y="257"/>
      <point x="208" y="272"/>
      <point x="155" y="291" type="curve"/>
      <point x="168" y="268" type="line"/>
      <point x="213" y="318"/>
      <point x="242" y="352"/>
      <point x="278" y="395" type="curve"/>
      <point x="227" y="439" type="line"/>
      <point x="181" y="386"/>
      <point x="134" y="333"/>
      <point x="87" y="282" type="curve"/>
      <point x="100" y="238" type="line"/>
      <point x="134" y="228"/>
      <point x="197" y="206"/>
      <point x="237" y="189" type="curve"/>
      <point x="213" y="236" type="line"/>
      <point x="170" y="193"/>
      <point x="124" y="150"/>
    </contour>
  </outline>
</glyph>
<glyph name="zaviyani-thaana" format="2">
  <advance width="441"/>
  <unicode hex="0792"/>
  <anchor x="83" y="-26" name="b.uni07A8"/>
  <anchor x="310" y="414" name="t.uni07A6"/>
  <outline>
    <contour>
      <point x="72" y="59" type="curve" smooth="yes"/>
      <point x="72" y="-26"/>
      <point x="131" y="-87"/>
      <point x="244" y="-87" type="curve" smooth="yes"/>
      <point x="279" y="-87"/>
      <point x="315" y="-84"/>
      <point x="359" y="-74" type="curve"/>
      <point x="359" y="-40"/>
      <point x="356" y="-16"/>
      <point x="353" y="5" type="curve"/>
      <point x="315" y="-4"/>
      <point x="278" y="-9"/>
      <point x="246" y="-9" type="curve" smooth="yes"/>
      <point x="183" y="-9"/>
      <point x="137" y="19"/>
      <point x="137" y="70" type="curve" smooth="yes"/>
      <point x="137" y="112"/>
      <point x="183" y="170"/>
      <point x="242" y="222" type="curve"/>
      <point x="180" y="257" type="line"/>
      <point x="117" y="195"/>
      <point x="72" y="134"/>
    </contour>
    <contour>
      <point x="73" y="249" type="curve"/>
      <point x="139" y="224"/>
      <point x="283" y="189"/>
      <point x="359" y="173" type="curve"/>
      <point x="376" y="241" type="line"/>
      <point x="322" y="251"/>
      <point x="287" y="259"/>
      <point x="257" y="266" type="curve"/>
      <point x="257" y="238" type="line"/>
      <point x="260" y="254"/>
      <point x="266" y="263"/>
      <point x="282" y="281" type="curve" smooth="yes"/>
      <point x="372" y="377" type="line"/>
      <point x="316" y="425" type="line"/>
      <point x="237" y="337" type="line" smooth="yes"/>
      <point x="215" y="313"/>
      <point x="207" y="303"/>
      <point x="207" y="288" type="curve" smooth="yes"/>
      <point x="207" y="276"/>
      <point x="212" y="267"/>
      <point x="231" y="257" type="curve"/>
      <point x="236" y="271" type="line"/>
      <point x="186" y="284"/>
      <point x="139" y="299"/>
      <point x="85" y="318" type="curve"/>
      <point x="80" y="294"/>
      <point x="75" y="264"/>
    </contour>
  </outline>
</glyph>
<glyph name="taviyani-thaana" format="2">
  <advance width="493"/>
  <unicode hex="0793"/>
  <anchor x="52" y="-26" name="b.uni07A8"/>
  <anchor x="320" y="414" name="t.uni07A6"/>
  <outline>
    <contour>
      <point x="37" y="47" type="curve" smooth="yes"/>
      <point x="37" y="-30"/>
      <point x="97" y="-87"/>
      <point x="210" y="-87" type="curve" smooth="yes"/>
      <point x="247" y="-87"/>
      <point x="282" y="-84"/>
      <point x="327" y="-74" type="curve"/>
      <point x="325" y="-43"/>
      <point x="323" y="-13"/>
      <point x="320" y="6" type="curve"/>
      <point x="280" y="-5"/>
      <point x="245" y="-9"/>
      <point x="212" y="-9" type="curve" smooth="yes"/>
      <point x="146" y="-9"/>
      <point x="102" y="16"/>
      <point x="102" y="59" type="curve" smooth="yes"/>
      <point x="102" y="85"/>
      <point x="135" y="123"/>
      <point x="215" y="157" type="curve"/>
      <point x="159" y="215" type="line"/>
      <point x="74" y="166"/>
      <point x="37" y="106"/>
    </contour>
    <contour>
      <point x="83" y="252" type="curve" smooth="yes"/>
      <point x="83" y="182"/>
      <point x="135" y="142"/>
      <point x="209" y="142" type="curve" smooth="yes"/>
      <point x="362" y="142"/>
      <point x="453" y="233"/>
      <point x="453" y="318" type="curve" smooth="yes"/>
      <point x="453" y="371"/>
      <point x="416" y="414"/>
      <point x="361" y="414" type="curve" smooth="yes"/>
      <point x="314" y="414"/>
      <point x="279" y="389"/>
      <point x="244" y="341" type="curve"/>
      <point x="272" y="302" type="line"/>
      <point x="295" y="327"/>
      <point x="320" y="342"/>
      <point x="349" y="342" type="curve" smooth="yes"/>
      <point x="368" y="342"/>
      <point x="385" y="329"/>
      <point x="385" y="310" type="curve" smooth="yes"/>
      <point x="385" y="275"/>
      <point x="327" y="212"/>
      <point x="211" y="212" type="curve" smooth="yes"/>
      <point x="176" y="212"/>
      <point x="149" y="238"/>
      <point x="149" y="260" type="curve" smooth="yes"/>
      <point x="149" y="283"/>
      <point x="177" y="307"/>
      <point x="207" y="307" type="curve" smooth="yes"/>
      <point x="232" y="307"/>
      <point x="250" y="291"/>
      <point x="250" y="268" type="curve" smooth="yes"/>
      <point x="250" y="241"/>
      <point x="230" y="216"/>
      <point x="190" y="200" type="curve"/>
      <point x="234" y="180" type="line"/>
      <point x="280" y="203"/>
      <point x="305" y="244"/>
      <point x="305" y="284" type="curve" smooth="yes"/>
      <point x="305" y="335"/>
      <point x="270" y="378"/>
      <point x="211" y="378" type="curve" smooth="yes"/>
      <point x="143" y="378"/>
      <point x="83" y="322"/>
    </contour>
  </outline>
</glyph>
<glyph name="yaa-thaana" format="2">
  <advance width="563"/>
  <unicode hex="0794"/>
  <anchor x="117" y="0" name="b.uni07A8"/>
  <anchor x="418" y="414" name="t.uni07A6"/>
  <outline>
    <contour>
      <point x="277" y="327" type="curve"/>
      <point x="277" y="247" type="line"/>
      <point x="363" y="264"/>
      <point x="445" y="302"/>
      <point x="494" y="340" type="curve"/>
      <point x="477" y="376" type="line"/>
      <point x="442" y="283"/>
      <point x="401" y="187"/>
      <point x="356" y="93" type="curve"/>
      <point x="442" y="71" type="line"/>
      <point x="472" y="145"/>
      <point x="526" y="286"/>
      <point x="551" y="383" type="curve"/>
      <point x="507" y="419" type="line"/>
      <point x="447" y="384"/>
      <point x="373" y="342"/>
    </contour>
    <component base="_part.haa" xOffset="-103"/>
  </outline>
</glyph>
<glyph name="javiyani-thaana" format="2">
  <advance width="491"/>
  <unicode hex="0796"/>
  <anchor x="36" y="-26" name="b.uni07A8"/>
  <anchor x="290" y="414" name="t.uni07A6"/>
  <outline>
    <contour>
      <point x="21" y="59" type="curve" smooth="yes"/>
      <point x="21" y="-26"/>
      <point x="79" y="-87"/>
      <point x="190" y="-87" type="curve" smooth="yes"/>
      <point x="230" y="-87"/>
      <point x="265" y="-82"/>
      <point x="306" y="-71" type="curve"/>
      <point x="305" y="-40"/>
      <point x="303" y="-13"/>
      <point x="301" y="8" type="curve"/>
      <point x="260" y="-4"/>
      <point x="222" y="-9"/>
      <point x="192" y="-9" type="curve" smooth="yes"/>
      <point x="130" y="-9"/>
      <point x="86" y="18"/>
      <point x="86" y="64" type="curve" smooth="yes"/>
      <point x="86" y="109"/>
      <point x="140" y="166"/>
      <point x="240" y="207" type="curve"/>
      <point x="177" y="262" type="line"/>
      <point x="85" y="206"/>
      <point x="21" y="136"/>
    </contour>
    <contour>
      <point x="102" y="250" type="curve" smooth="yes"/>
      <point x="102" y="201"/>
      <point x="157" y="192"/>
      <point x="199" y="190" type="curve"/>
      <point x="216" y="208"/>
      <point x="224" y="229"/>
      <point x="224" y="249" type="curve" smooth="yes"/>
      <point x="224" y="288"/>
      <point x="198" y="306"/>
      <point x="167" y="306" type="curve" smooth="yes"/>
      <point x="125" y="306"/>
      <point x="102" y="282"/>
    </contour>
    <component base="_part.jav" xOffset="-73" yOffset="-52"/>
  </outline>
</glyph>
<glyph name="chaviyani-thaana" format="2">
  <advance width="489"/>
  <unicode hex="0797"/>
  <anchor x="175" y="0" name="b.uni07A8"/>
  <anchor x="206" y="414" name="t.uni07A6"/>
  <outline>
    <contour>
      <point x="203" y="339" type="line"/>
      <point x="273" y="324" type="line"/>
      <point x="474" y="516" type="line"/>
      <point x="431" y="564" type="line"/>
    </contour>
    <component base="thaa-thaana" xOffset="4"/>
  </outline>
</glyph>
<glyph name="ttaa-thaana" format="2">
  <advance width="499"/>
  <unicode hex="0798"/>
  <anchor x="210" y="0" name="b.uni07A8"/>
  <anchor x="410" y="414" name="t.uni07A6"/>
  <outline>
    <contour>
      <point x="173" y="328" type="curve" smooth="yes"/>
      <point x="186" y="342"/>
      <point x="189" y="358"/>
      <point x="171" y="377" type="curve" smooth="yes"/>
      <point x="156" y="393"/>
      <point x="142" y="390"/>
      <point x="123" y="374" type="curve" smooth="yes"/>
      <point x="110" y="360"/>
      <point x="107" y="344"/>
      <point x="125" y="325" type="curve" smooth="yes"/>
      <point x="140" y="309"/>
      <point x="154" y="312"/>
    </contour>
    <contour>
      <point x="152" y="459" type="curve" smooth="yes"/>
      <point x="165" y="472"/>
      <point x="168" y="489"/>
      <point x="150" y="508" type="curve" smooth="yes"/>
      <point x="135" y="524"/>
      <point x="121" y="520"/>
      <point x="102" y="503" type="curve" smooth="yes"/>
      <point x="89" y="490"/>
      <point x="86" y="473"/>
      <point x="104" y="454" type="curve" smooth="yes"/>
      <point x="119" y="438"/>
      <point x="133" y="442"/>
    </contour>
    <contour>
      <point x="268" y="425" type="curve" smooth="yes"/>
      <point x="283" y="439"/>
      <point x="286" y="455"/>
      <point x="267" y="474" type="curve" smooth="yes"/>
      <point x="252" y="490"/>
      <point x="237" y="486"/>
      <point x="221" y="469" type="curve" smooth="yes"/>
      <point x="206" y="455"/>
      <point x="203" y="439"/>
      <point x="222" y="420" type="curve" smooth="yes"/>
      <point x="237" y="404"/>
      <point x="252" y="408"/>
    </contour>
    <component base="thaa-thaana" xOffset="40"/>
  </outline>
</glyph>
<glyph name="sheenu-thaana" format="2">
  <advance width="775"/>
  <unicode hex="079D"/>
  <anchor x="358" y="0" name="b.uni07A8"/>
  <anchor x="474" y="432" name="t.uni07A6"/>
  <outline>
    <contour>
      <point x="410" y="347" type="curve" smooth="yes"/>
      <point x="434" y="347"/>
      <point x="446" y="355"/>
      <point x="446" y="378" type="curve" smooth="yes"/>
      <point x="446" y="408"/>
      <point x="433" y="412"/>
      <point x="408" y="412" type="curve" smooth="yes"/>
      <point x="385" y="412"/>
      <point x="375" y="398"/>
      <point x="375" y="375" type="curve" smooth="yes"/>
      <point x="375" y="354"/>
      <point x="390" y="347"/>
    </contour>
    <contour>
      <point x="471" y="452" type="curve" smooth="yes"/>
      <point x="495" y="452"/>
      <point x="507" y="459"/>
      <point x="507" y="483" type="curve" smooth="yes"/>
      <point x="507" y="513"/>
      <point x="494" y="517"/>
      <point x="469" y="517" type="curve" smooth="yes"/>
      <point x="445" y="517"/>
      <point x="436" y="502"/>
      <point x="436" y="477" type="curve" smooth="yes"/>
      <point x="436" y="458"/>
      <point x="451" y="452"/>
    </contour>
    <contour>
      <point x="536" y="351" type="curve" smooth="yes"/>
      <point x="560" y="351"/>
      <point x="572" y="359"/>
      <point x="572" y="385" type="curve" smooth="yes"/>
      <point x="572" y="409"/>
      <point x="560" y="416"/>
      <point x="538" y="416" type="curve" smooth="yes"/>
      <point x="511" y="416"/>
      <point x="500" y="404"/>
      <point x="500" y="378" type="curve" smooth="yes"/>
      <point x="500" y="358"/>
      <point x="515" y="351"/>
    </contour>
    <component base="seenu-thaana"/>
  </outline>
</glyph>
<glyph name="qaafu-thaana" format="2">
  <advance width="457"/>
  <unicode hex="07A4"/>
  <anchor x="134" y="0" name="b.uni07A8"/>
  <anchor x="344" y="414" name="t.uni07A6"/>
  <outline>
    <contour>
      <point x="145" y="364" type="curve" smooth="yes"/>
      <point x="159" y="382"/>
      <point x="156" y="398"/>
      <point x="138" y="413" type="curve" smooth="yes"/>
      <point x="120" y="427"/>
      <point x="105" y="420"/>
      <point x="90" y="403" type="curve" smooth="yes"/>
      <point x="76" y="385"/>
      <point x="79" y="369"/>
      <point x="97" y="354" type="curve" smooth="yes"/>
      <point x="115" y="340"/>
      <point x="130" y="347"/>
    </contour>
    <contour>
      <point x="226" y="456" type="curve" smooth="yes"/>
      <point x="240" y="473"/>
      <point x="237" y="489"/>
      <point x="219" y="505" type="curve" smooth="yes"/>
      <point x="201" y="519"/>
      <point x="186" y="512"/>
      <point x="171" y="494" type="curve" smooth="yes"/>
      <point x="157" y="477"/>
      <point x="160" y="461"/>
      <point x="178" y="445" type="curve" smooth="yes"/>
      <point x="196" y="431"/>
      <point x="211" y="438"/>
    </contour>
    <component base="gaafu-thaana" xOffset="40"/>
  </outline>
</glyph>
<glyph name="abafili-thaana" format="2">
  <unicode hex="07A6"/>
  <anchor x="177" y="414" name="_t.uni07A6"/>
  <outline>
    <contour>
      <point x="305" y="710" type="curve"/>
      <point x="266" y="738" type="line"/>
      <point x="228" y="686"/>
      <point x="158" y="613"/>
      <point x="108" y="572" type="curve"/>
      <point x="118" y="557"/>
      <point x="136" y="544"/>
      <point x="151" y="537" type="curve"/>
      <point x="203" y="582"/>
      <point x="273" y="663"/>
    </contour>
  </outline>
</glyph>
<glyph name="aabaafili-thaana" format="2">
  <unicode hex="07A7"/>
  <anchor x="193" y="414" name="_t.uni07A6"/>
  <outline>
    <contour>
      <point x="378" y="704" type="curve"/>
      <point x="340" y="729" type="line"/>
      <point x="306" y="683"/>
      <point x="244" y="616"/>
      <point x="197" y="578" type="curve"/>
      <point x="206" y="566"/>
      <point x="225" y="552"/>
      <point x="241" y="546" type="curve"/>
      <point x="286" y="587"/>
      <point x="350" y="660"/>
    </contour>
    <contour>
      <point x="257" y="714" type="curve"/>
      <point x="223" y="743" type="line"/>
      <point x="187" y="698"/>
      <point x="119" y="634"/>
      <point x="72" y="600" type="curve"/>
      <point x="81" y="587"/>
      <point x="96" y="573"/>
      <point x="113" y="563" type="curve"/>
      <point x="161" y="604"/>
      <point x="227" y="672"/>
    </contour>
  </outline>
</glyph>
<glyph name="ibifili-thaana" format="2">
  <unicode hex="07A8"/>
  <anchor x="107" y="0" name="_b.uni07A8"/>
  <outline>
    <contour>
      <point x="213" y="-127" type="curve"/>
      <point x="174" y="-99" type="line"/>
      <point x="136" y="-151"/>
      <point x="66" y="-224"/>
      <point x="16" y="-265" type="curve"/>
      <point x="24" y="-280"/>
      <point x="44" y="-293"/>
      <point x="59" y="-300" type="curve"/>
      <point x="111" y="-255"/>
      <point x="181" y="-174"/>
    </contour>
  </outline>
</glyph>
<glyph name="eebeefili-thaana" format="2">
  <unicode hex="07A9"/>
  <anchor x="135" y="0" name="_b.uni07A8"/>
  <outline>
    <contour>
      <point x="189" y="-131" type="curve"/>
      <point x="155" y="-102" type="line"/>
      <point x="119" y="-147"/>
      <point x="51" y="-211"/>
      <point x="4" y="-245" type="curve"/>
      <point x="13" y="-258"/>
      <point x="28" y="-272"/>
      <point x="45" y="-282" type="curve"/>
      <point x="93" y="-241"/>
      <point x="159" y="-173"/>
    </contour>
    <contour>
      <point x="310" y="-141" type="curve"/>
      <point x="272" y="-116" type="line"/>
      <point x="238" y="-162"/>
      <point x="176" y="-229"/>
      <point x="129" y="-267" type="curve"/>
      <point x="138" y="-279"/>
      <point x="157" y="-293"/>
      <point x="173" y="-299" type="curve"/>
      <point x="218" y="-258"/>
      <point x="282" y="-185"/>
    </contour>
  </outline>
</glyph>
<glyph name="ebefili-thaana" format="2">
  <unicode hex="07AC"/>
  <anchor x="128" y="414" name="_t.uni07A6"/>
  <outline>
    <contour>
      <point x="90" y="580" type="line"/>
      <point x="90" y="608" type="line"/>
      <point x="86" y="587" type="line"/>
      <point x="117" y="628"/>
      <point x="167" y="669"/>
      <point x="206" y="697" type="curve"/>
      <point x="195" y="711"/>
      <point x="182" y="724"/>
      <point x="166" y="732" type="curve"/>
      <point x="113" y="688"/>
      <point x="67" y="633"/>
      <point x="58" y="617" type="curve" smooth="yes"/>
      <point x="52" y="606"/>
      <point x="48" y="590"/>
      <point x="48" y="581" type="curve" smooth="yes"/>
      <point x="48" y="556"/>
      <point x="92" y="534"/>
      <point x="138" y="534" type="curve" smooth="yes"/>
      <point x="167" y="534"/>
      <point x="189" y="539"/>
      <point x="212" y="549" type="curve"/>
      <point x="212" y="561"/>
      <point x="211" y="576"/>
      <point x="210" y="590" type="curve"/>
      <point x="204" y="598" type="line"/>
      <point x="182" y="589"/>
      <point x="157" y="583"/>
      <point x="137" y="583" type="curve" smooth="yes"/>
      <point x="118" y="583"/>
      <point x="94" y="588"/>
      <point x="77" y="595" type="curve"/>
    </contour>
  </outline>
</glyph>
<glyph name="obofili-thaana" format="2">
  <unicode hex="07AE"/>
  <anchor x="242" y="415" name="_t.uni07A6"/>
  <outline>
    <contour>
      <point x="228" y="591" type="curve" smooth="yes"/>
      <point x="228" y="561"/>
      <point x="267" y="534"/>
      <point x="308" y="534" type="curve" smooth="yes"/>
      <point x="333" y="534"/>
      <point x="352" y="538"/>
      <point x="372" y="546" type="curve"/>
      <point x="372" y="557"/>
      <point x="371" y="572"/>
      <point x="370" y="587" type="curve"/>
      <point x="364" y="595" type="line"/>
      <point x="345" y="588"/>
      <point x="324" y="583"/>
      <point x="310" y="583" type="curve" smooth="yes"/>
      <point x="288" y="583"/>
      <point x="272" y="590"/>
      <point x="257" y="605" type="curve"/>
      <point x="262" y="587" type="line"/>
      <point x="298" y="629"/>
      <point x="355" y="672"/>
      <point x="400" y="700" type="curve"/>
      <point x="389" y="714"/>
      <point x="376" y="727"/>
      <point x="360" y="735" type="curve"/>
      <point x="300" y="694"/>
      <point x="247" y="642"/>
      <point x="238" y="627" type="curve" smooth="yes"/>
      <point x="232" y="617"/>
      <point x="228" y="600"/>
    </contour>
    <contour>
      <point x="150" y="569" type="curve"/>
      <point x="161" y="555"/>
      <point x="174" y="542"/>
      <point x="190" y="534" type="curve"/>
      <point x="250" y="575"/>
      <point x="303" y="627"/>
      <point x="312" y="642" type="curve" smooth="yes"/>
      <point x="318" y="653"/>
      <point x="322" y="669"/>
      <point x="322" y="678" type="curve" smooth="yes"/>
      <point x="322" y="708"/>
      <point x="283" y="735"/>
      <point x="242" y="735" type="curve" smooth="yes"/>
      <point x="217" y="735"/>
      <point x="198" y="731"/>
      <point x="178" y="723" type="curve"/>
      <point x="178" y="711"/>
      <point x="179" y="696"/>
      <point x="180" y="682" type="curve"/>
      <point x="186" y="674" type="line"/>
      <point x="205" y="681"/>
      <point x="226" y="686"/>
      <point x="240" y="686" type="curve" smooth="yes"/>
      <point x="259" y="686"/>
      <point x="279" y="681"/>
      <point x="293" y="664" type="curve"/>
      <point x="288" y="682" type="line"/>
      <point x="252" y="640"/>
      <point x="195" y="597"/>
    </contour>
  </outline>
</glyph>
<glyph name="oaboafili-thaana" format="2">
  <unicode hex="07AF"/>
  <anchor x="177" y="414" name="_t.uni07A6"/>
  <outline>
    <contour>
      <point x="143" y="596" type="curve" smooth="yes"/>
      <point x="143" y="549"/>
      <point x="178" y="526"/>
      <point x="228" y="526" type="curve" smooth="yes"/>
      <point x="257" y="526"/>
      <point x="286" y="534"/>
      <point x="300" y="542" type="curve"/>
      <point x="289" y="589" type="line"/>
      <point x="272" y="581"/>
      <point x="252" y="575"/>
      <point x="233" y="575" type="curve" smooth="yes"/>
      <point x="213" y="575"/>
      <point x="195" y="582"/>
      <point x="195" y="604" type="curve" smooth="yes"/>
      <point x="195" y="645"/>
      <point x="254" y="698"/>
      <point x="292" y="698" type="curve" smooth="yes"/>
      <point x="306" y="698"/>
      <point x="313" y="691"/>
      <point x="313" y="680" type="curve" smooth="yes"/>
      <point x="313" y="663"/>
      <point x="295" y="644"/>
      <point x="280" y="629" type="curve"/>
      <point x="324" y="609" type="line"/>
      <point x="344" y="632"/>
      <point x="362" y="659"/>
      <point x="362" y="689" type="curve" smooth="yes"/>
      <point x="362" y="725"/>
      <point x="337" y="747"/>
      <point x="298" y="747" type="curve" smooth="yes"/>
      <point x="229" y="747"/>
      <point x="143" y="671"/>
    </contour>
  </outline>
</glyph>
<glyph name="sukun-thaana" format="2">
  <unicode hex="07B0"/>
  <anchor x="132" y="414" name="_t.uni07A6"/>
  <outline>
    <contour>
      <point x="158" y="729" type="curve" smooth="yes"/>
      <point x="119" y="729"/>
      <point x="88" y="707"/>
      <point x="72" y="678" type="curve" smooth="yes"/>
      <point x="62" y="660"/>
      <point x="57" y="636"/>
      <point x="57" y="619" type="curve" smooth="yes"/>
      <point x="57" y="575"/>
      <point x="93" y="539"/>
      <point x="145" y="539" type="curve" smooth="yes"/>
      <point x="167" y="539"/>
      <point x="191" y="546"/>
      <point x="208" y="561" type="curve" smooth="yes"/>
      <point x="230" y="581"/>
      <point x="243" y="616"/>
      <point x="243" y="646" type="curve" smooth="yes"/>
      <point x="243" y="695"/>
      <point x="207" y="729"/>
    </contour>
    <contour>
      <point x="98" y="633" type="curve" smooth="yes"/>
      <point x="98" y="654"/>
      <point x="118" y="679"/>
      <point x="151" y="679" type="curve" smooth="yes"/>
      <point x="182" y="679"/>
      <point x="201" y="657"/>
      <point x="201" y="635" type="curve" smooth="yes"/>
      <point x="201" y="611"/>
      <point x="176" y="589"/>
      <point x="148" y="589" type="curve" smooth="yes"/>
      <point x="115" y="589"/>
      <point x="98" y="613"/>
    </contour>
  </outline>
</glyph>
<glyph name="naa-thaana" format="2">
  <advance width="400"/>
  <unicode hex="07B1"/>
  <anchor x="96" y="-27" name="b.uni07A8"/>
  <anchor x="299" y="414" name="t.uni07A6"/>
  <outline>
    <contour>
      <point x="42" y="46" type="curve" smooth="yes"/>
      <point x="42" y="-28"/>
      <point x="98" y="-87"/>
      <point x="213" y="-87" type="curve" smooth="yes"/>
      <point x="246" y="-87"/>
      <point x="285" y="-82"/>
      <point x="329" y="-72" type="curve"/>
      <point x="328" y="-48"/>
      <point x="325" y="-14"/>
      <point x="322" y="6" type="curve"/>
      <point x="282" y="-4"/>
      <point x="243" y="-9"/>
      <point x="205" y="-9" type="curve" smooth="yes"/>
      <point x="144" y="-9"/>
      <point x="107" y="17"/>
      <point x="107" y="54" type="curve" smooth="yes"/>
      <point x="107" y="88"/>
      <point x="143" y="113"/>
      <point x="222" y="154" type="curve" smooth="yes"/>
      <point x="337" y="214"/>
      <point x="368" y="262"/>
      <point x="368" y="314" type="curve" smooth="yes"/>
      <point x="368" y="375"/>
      <point x="321" y="414"/>
      <point x="254" y="414" type="curve" smooth="yes"/>
      <point x="175" y="414"/>
      <point x="93" y="363"/>
      <point x="93" y="282" type="curve" smooth="yes"/>
      <point x="93" y="242"/>
      <point x="112" y="201"/>
      <point x="179" y="159" type="curve"/>
      <point x="231" y="185" type="line"/>
      <point x="179" y="211"/>
      <point x="160" y="239"/>
      <point x="160" y="265" type="curve" smooth="yes"/>
      <point x="160" y="303"/>
      <point x="207" y="341"/>
      <point x="261" y="341" type="curve" smooth="yes"/>
      <point x="289" y="341"/>
      <point x="305" y="329"/>
      <point x="305" y="311" type="curve" smooth="yes"/>
      <point x="305" y="289"/>
      <point x="278" y="264"/>
      <point x="214" y="231" type="curve" smooth="yes"/>
      <point x="89" y="167"/>
      <point x="42" y="119"/>
    </contour>
  </outline>
</glyph>
<glyph name="righttoleftmark" format="2">
  <unicode hex="200F"/>
  <outline>
    <contour>
      <point x="-18" y="692" type="line"/>
      <point x="-18" y="89" type="line"/>
      <point x="17" y="89" type="line"/>
      <point x="17" y="727" type="line"/>
      <point x="-147" y="727" type="line"/>
      <point x="-81" y="790" type="line"/>
      <point x="-104" y="814" type="line"/>
      <point x="-210" y="709" type="line"/>
      <point x="-104" y="604" type="line"/>
      <point x="-81" y="628" type="line"/>
      <point x="-147" y="692" type="line"/>
    </contour>
  </outline>
</glyph>
<glyph name="quoteleft" format="2">
  <advance width="185.75"/>
  <unicode hex="2018"/>
  <outline>
    <contour>
      <point x="78" y="571" type="curve" smooth="yes"/>
      <point x="120" y="571"/>
      <point x="133" y="585"/>
      <point x="133" y="613" type="curve" smooth="yes"/>
      <point x="133" y="640"/>
      <point x="124" y="645"/>
      <point x="92" y="652" type="curve"/>
      <point x="93" y="669"/>
      <point x="118" y="725"/>
      <point x="148" y="767" type="curve"/>
      <point x="98" y="791" type="line"/>
      <point x="63" y="743"/>
      <point x="23" y="659"/>
      <point x="23" y="614" type="curve" smooth="yes"/>
      <point x="23" y="580"/>
      <point x="44" y="571"/>
    </contour>
  </outline>
</glyph>
<glyph name="bismillah-ar" format="2">
  <advance width="1942"/>
  <unicode hex="FDFD"/>
  <outline>
    <contour>
      <point x="916" y="185" type="curve"/>
      <point x="945" y="190" type="line"/>
      <point x="932" y="239"/>
      <point x="920" y="297"/>
      <point x="920" y="327" type="curve" smooth="yes"/>
      <point x="920" y="379"/>
      <point x="946" y="432"/>
      <point x="1022" y="446" type="curve"/>
      <point x="1044" y="382"/>
      <point x="1054" y="341"/>
      <point x="1106" y="334" type="curve" smooth="yes"/>
      <point x="1147" y="329"/>
      <point x="1257" y="329"/>
      <point x="1297" y="334" type="curve" smooth="yes"/>
      <point x="1333" y="340"/>
      <point x="1353" y="340"/>
      <point x="1365" y="379" type="curve"/>
      <point x="1356" y="378" type="line"/>
      <point x="1357" y="341"/>
      <point x="1385" y="334"/>
      <point x="1405" y="334" type="curve" smooth="yes"/>
      <point x="1443" y="334"/>
      <point x="1457" y="341"/>
      <point x="1469" y="374" type="curve"/>
      <point x="1459" y="374" type="line"/>
      <point x="1460" y="345"/>
      <point x="1478" y="334"/>
      <point x="1512" y="334" type="curve" smooth="yes"/>
      <point x="1546" y="334"/>
      <point x="1567" y="346"/>
      <point x="1571" y="378" type="curve"/>
      <point x="1565" y="380" type="line"/>
      <point x="1571" y="350"/>
      <point x="1591" y="334"/>
      <point x="1627" y="334" type="curve" smooth="yes"/>
      <point x="1675" y="334"/>
      <point x="1697" y="355"/>
      <point x="1697" y="402" type="curve" smooth="yes"/>
      <point x="1697" y="421"/>
      <point x="1693" y="437"/>
      <point x="1689" y="456" type="curve"/>
      <point x="1659" y="449" type="line"/>
      <point x="1663" y="434"/>
      <point x="1667" y="418"/>
      <point x="1667" y="403" type="curve" smooth="yes"/>
      <point x="1667" y="373"/>
      <point x="1655" y="364"/>
      <point x="1630" y="364" type="curve" smooth="yes"/>
      <point x="1588" y="364"/>
      <point x="1583" y="379"/>
      <point x="1576" y="478" type="curve"/>
      <point x="1548" y="476" type="line"/>
      <point x="1552" y="439"/>
      <point x="1552" y="419"/>
      <point x="1552" y="398" type="curve" smooth="yes"/>
      <point x="1552" y="375"/>
      <point x="1542" y="364"/>
      <point x="1515" y="364" type="curve" smooth="yes"/>
      <point x="1483" y="364"/>
      <point x="1479" y="373"/>
      <point x="1479" y="386" type="curve" smooth="yes"/>
      <point x="1479" y="401"/>
      <point x="1483" y="430"/>
      <point x="1487" y="448" type="curve"/>
      <point x="1457" y="452" type="line"/>
      <point x="1446" y="368"/>
      <point x="1442" y="364"/>
      <point x="1409" y="364" type="curve" smooth="yes"/>
      <point x="1383" y="364"/>
      <point x="1376" y="376"/>
      <point x="1376" y="394" type="curve" smooth="yes"/>
      <point x="1376" y="406"/>
      <point x="1382" y="432"/>
      <point x="1385" y="444" type="curve"/>
      <point x="1355" y="450" type="line"/>
      <point x="1340" y="366"/>
      <point x="1334" y="369"/>
      <point x="1298" y="364" type="curve" smooth="yes"/>
      <point x="1254" y="359"/>
      <point x="1158" y="358"/>
      <point x="1110" y="364" type="curve" smooth="yes"/>
      <point x="1088" y="367"/>
      <point x="1080" y="375"/>
      <point x="1064" y="418" type="curve" smooth="yes"/>
      <point x="1047" y="467"/>
      <point x="1043" y="476"/>
      <point x="1027" y="476" type="curve" smooth="yes"/>
      <point x="990" y="476"/>
      <point x="890" y="436"/>
      <point x="890" y="327" type="curve" smooth="yes"/>
      <point x="890" y="305"/>
      <point x="900" y="243"/>
    </contour>
    <contour>
      <point x="182" y="-6" type="curve" smooth="yes"/>
      <point x="204" y="-6"/>
      <point x="220" y="4"/>
      <point x="229" y="19" type="curve"/>
      <point x="213" y="41" type="line"/>
      <point x="193" y="8"/>
      <point x="136" y="20"/>
      <point x="107" y="89" type="curve"/>
      <point x="87" y="67" type="line"/>
      <point x="119" y="0"/>
      <point x="159" y="-6"/>
    </contour>
    <contour>
      <point x="327" y="-170" type="line"/>
      <point x="349" y="-170" type="line"/>
      <point x="347" y="-103" type="line"/>
      <point x="325" y="-103" type="line"/>
    </contour>
    <contour>
      <point x="309" y="-83" type="curve" smooth="yes"/>
      <point x="319" y="-83"/>
      <point x="327" y="-75"/>
      <point x="327" y="-64" type="curve" smooth="yes"/>
      <point x="327" y="-54"/>
      <point x="319" y="-46"/>
      <point x="309" y="-46" type="curve" smooth="yes"/>
      <point x="297" y="-46"/>
      <point x="289" y="-54"/>
      <point x="289" y="-64" type="curve" smooth="yes"/>
      <point x="289" y="-75"/>
      <point x="297" y="-83"/>
    </contour>
    <contour>
      <point x="364" y="-83" type="curve" smooth="yes"/>
      <point x="375" y="-83"/>
      <point x="383" y="-75"/>
      <point x="383" y="-64" type="curve" smooth="yes"/>
      <point x="383" y="-54"/>
      <point x="375" y="-46"/>
      <point x="364" y="-46" type="curve" smooth="yes"/>
      <point x="353" y="-46"/>
      <point x="345" y="-54"/>
      <point x="345" y="-64" type="curve" smooth="yes"/>
      <point x="345" y="-75"/>
      <point x="353" y="-83"/>
    </contour>
    <contour>
      <point x="69" y="-151" type="curve"/>
      <point x="97" y="-146" type="line"/>
      <point x="84" y="-97"/>
      <point x="73" y="-39"/>
      <point x="73" y="-9" type="curve" smooth="yes"/>
      <point x="73" y="43"/>
      <point x="98" y="96"/>
      <point x="174" y="110" type="curve"/>
      <point x="196" y="46"/>
      <point x="206" y="-2"/>
      <point x="266" y="-2" type="curve" smooth="yes"/>
      <point x="294" y="-2"/>
      <point x="322" y="6"/>
      <point x="327" y="36" type="curve"/>
      <point x="320" y="34" type="line"/>
      <point x="325" y="12"/>
      <point x="347" y="-2"/>
      <point x="377" y="-2" type="curve" smooth="yes"/>
      <point x="489" y="-2"/>
      <point x="519" y="65"/>
      <point x="574" y="65" type="curve"/>
      <point x="571" y="92" type="line"/>
      <point x="561" y="92" type="line" smooth="yes"/>
      <point x="529" y="92"/>
      <point x="493" y="135"/>
      <point x="430" y="135" type="curve" smooth="yes"/>
      <point x="417" y="135"/>
      <point x="400" y="132"/>
      <point x="389" y="128" type="curve"/>
      <point x="393" y="100" type="line"/>
      <point x="405" y="103"/>
      <point x="414" y="104"/>
      <point x="430" y="104" type="curve" smooth="yes"/>
      <point x="461" y="104"/>
      <point x="491" y="90"/>
      <point x="520" y="77" type="curve"/>
      <point x="480" y="58"/>
      <point x="446" y="28"/>
      <point x="380" y="28" type="curve" smooth="yes"/>
      <point x="352" y="28"/>
      <point x="341" y="37"/>
      <point x="335" y="60" type="curve" smooth="yes"/>
      <point x="333" y="69"/>
      <point x="324" y="117"/>
      <point x="318" y="148" type="curve"/>
      <point x="288" y="142" type="line"/>
      <point x="293" y="117"/>
      <point x="300" y="85"/>
      <point x="302" y="65" type="curve" smooth="yes"/>
      <point x="306" y="34"/>
      <point x="292" y="28"/>
      <point x="268" y="28" type="curve" smooth="yes"/>
      <point x="239" y="28"/>
      <point x="232" y="40"/>
      <point x="216" y="82" type="curve" smooth="yes"/>
      <point x="199" y="131"/>
      <point x="195" y="140"/>
      <point x="179" y="140" type="curve" smooth="yes"/>
      <point x="142" y="140"/>
      <point x="43" y="100"/>
      <point x="43" y="-9" type="curve" smooth="yes"/>
      <point x="43" y="-31"/>
      <point x="52" y="-93"/>
    </contour>
    <contour>
      <point x="216" y="207" type="line"/>
      <point x="379" y="275" type="line"/>
      <point x="379" y="296" type="line"/>
      <point x="216" y="229" type="line"/>
    </contour>
    <contour>
      <point x="385" y="175" type="line"/>
      <point x="547" y="242" type="line"/>
      <point x="547" y="264" type="line"/>
      <point x="385" y="196" type="line"/>
    </contour>
    <contour>
      <point x="524" y="-84" type="line"/>
      <point x="573" y="-86"/>
      <point x="643" y="-74"/>
      <point x="648" y="10" type="curve"/>
      <point x="656" y="1"/>
      <point x="669" y="-2"/>
      <point x="683" y="-2" type="curve" smooth="yes"/>
      <point x="740" y="-2"/>
      <point x="750" y="28"/>
      <point x="748" y="83" type="curve" smooth="yes"/>
      <point x="740" y="276" type="line"/>
      <point x="709" y="276" type="line"/>
      <point x="717" y="89" type="line" smooth="yes"/>
      <point x="719" y="41"/>
      <point x="719" y="28"/>
      <point x="682" y="28" type="curve" smooth="yes"/>
      <point x="669" y="28"/>
      <point x="652" y="30"/>
      <point x="645" y="53" type="curve" smooth="yes"/>
      <point x="643" y="63"/>
      <point x="632" y="107"/>
      <point x="625" y="132" type="curve"/>
      <point x="595" y="126" type="line"/>
      <point x="603" y="98"/>
      <point x="611" y="69"/>
      <point x="617" y="35" type="curve" smooth="yes"/>
      <point x="630" y="-39"/>
      <point x="574" y="-56"/>
      <point x="523" y="-55" type="curve"/>
    </contour>
    <contour>
      <point x="494" y="350" type="curve"/>
      <point x="491" y="379" type="line"/>
      <point x="460" y="367"/>
      <point x="405" y="372"/>
      <point x="405" y="399" type="curve" smooth="yes"/>
      <point x="405" y="421"/>
      <point x="441" y="447"/>
      <point x="487" y="447" type="curve"/>
      <point x="482" y="478" type="line"/>
      <point x="425" y="472"/>
      <point x="377" y="437"/>
      <point x="377" y="396" type="curve" smooth="yes"/>
      <point x="377" y="349"/>
      <point x="437" y="332"/>
    </contour>
    <contour>
      <point x="807" y="0" type="line"/>
      <point x="838" y="0" type="line"/>
      <point x="829" y="276" type="line"/>
      <point x="799" y="276" type="line"/>
    </contour>
    <contour>
      <point x="548" y="305" type="curve" smooth="yes"/>
      <point x="585" y="305"/>
      <point x="605" y="314"/>
      <point x="614" y="332" type="curve"/>
      <point x="621" y="317"/>
      <point x="638" y="305"/>
      <point x="668" y="305" type="curve" smooth="yes"/>
      <point x="728" y="305"/>
      <point x="742" y="335"/>
      <point x="740" y="388" type="curve" smooth="yes"/>
      <point x="732" y="583" type="line"/>
      <point x="701" y="583" type="line"/>
      <point x="709" y="385" type="line" smooth="yes"/>
      <point x="711" y="346"/>
      <point x="703" y="335"/>
      <point x="668" y="335" type="curve" smooth="yes"/>
      <point x="639" y="335"/>
      <point x="624" y="347"/>
      <point x="623" y="385" type="curve" smooth="yes"/>
      <point x="618" y="542" type="line"/>
      <point x="588" y="542" type="line"/>
      <point x="593" y="385" type="line" smooth="yes"/>
      <point x="594" y="346"/>
      <point x="591" y="335"/>
      <point x="552" y="335" type="curve" smooth="yes"/>
      <point x="513" y="335"/>
      <point x="507" y="351"/>
      <point x="506" y="377" type="curve" smooth="yes"/>
      <point x="500" y="507" type="line"/>
      <point x="470" y="507" type="line"/>
      <point x="475" y="373" type="line" smooth="yes"/>
      <point x="477" y="321"/>
      <point x="501" y="305"/>
    </contour>
    <contour>
      <point x="989" y="110" type="curve" smooth="yes"/>
      <point x="1001" y="110"/>
      <point x="1011" y="121"/>
      <point x="1011" y="133" type="curve" smooth="yes"/>
      <point x="1011" y="144"/>
      <point x="1001" y="155"/>
      <point x="989" y="155" type="curve" smooth="yes"/>
      <point x="976" y="155"/>
      <point x="966" y="144"/>
      <point x="966" y="133" type="curve" smooth="yes"/>
      <point x="966" y="121"/>
      <point x="976" y="110"/>
    </contour>
    <contour>
      <point x="576" y="558" type="curve" smooth="yes"/>
      <point x="592" y="558"/>
      <point x="605" y="571"/>
      <point x="605" y="588" type="curve"/>
      <point x="597" y="594" type="line"/>
      <point x="597" y="578"/>
      <point x="608" y="570"/>
      <point x="624" y="570" type="curve" smooth="yes"/>
      <point x="646" y="570"/>
      <point x="656" y="586"/>
      <point x="656" y="604" type="curve" smooth="yes"/>
      <point x="656" y="615"/>
      <point x="652" y="629"/>
      <point x="648" y="641" type="curve"/>
      <point x="629" y="635" type="line"/>
      <point x="633" y="625"/>
      <point x="636" y="615"/>
      <point x="636" y="606" type="curve" smooth="yes"/>
      <point x="636" y="598"/>
      <point x="634" y="589"/>
      <point x="623" y="589" type="curve" smooth="yes"/>
      <point x="614" y="589"/>
      <point x="612" y="597"/>
      <point x="612" y="603" type="curve"/>
      <point x="612" y="630" type="line"/>
      <point x="594" y="623" type="line"/>
      <point x="594" y="610" type="line"/>
      <point x="593" y="585"/>
      <point x="587" y="579"/>
      <point x="579" y="579" type="curve" smooth="yes"/>
      <point x="572" y="579"/>
      <point x="570" y="584"/>
      <point x="570" y="594" type="curve" smooth="yes"/>
      <point x="570" y="600"/>
      <point x="571" y="607"/>
      <point x="572" y="616" type="curve"/>
      <point x="552" y="612" type="line"/>
      <point x="551" y="603"/>
      <point x="550" y="595"/>
      <point x="550" y="589" type="curve" smooth="yes"/>
      <point x="550" y="573"/>
      <point x="556" y="558"/>
    </contour>
    <contour>
      <point x="993" y="-104" type="curve" smooth="yes"/>
      <point x="1085" y="-104"/>
      <point x="1115" y="-44"/>
      <point x="1115" y="13" type="curve"/>
      <point x="1124" y="4"/>
      <point x="1138" y="-2"/>
      <point x="1157" y="-2" type="curve" smooth="yes"/>
      <point x="1187" y="-2"/>
      <point x="1200" y="7"/>
      <point x="1226" y="58" type="curve" smooth="yes"/>
      <point x="1244" y="92"/>
      <point x="1259" y="108"/>
      <point x="1283" y="108" type="curve"/>
      <point x="1316" y="28"/>
      <point x="1330" y="-2"/>
      <point x="1380" y="-2" type="curve" smooth="yes"/>
      <point x="1494" y="-2"/>
      <point x="1524" y="65"/>
      <point x="1580" y="65" type="curve"/>
      <point x="1578" y="92" type="line"/>
      <point x="1567" y="92" type="line" smooth="yes"/>
      <point x="1536" y="92"/>
      <point x="1499" y="135"/>
      <point x="1436" y="135" type="curve" smooth="yes"/>
      <point x="1423" y="135"/>
      <point x="1406" y="132"/>
      <point x="1395" y="128" type="curve"/>
      <point x="1400" y="100" type="line"/>
      <point x="1411" y="103"/>
      <point x="1420" y="104"/>
      <point x="1436" y="104" type="curve" smooth="yes"/>
      <point x="1467" y="104"/>
      <point x="1498" y="90"/>
      <point x="1526" y="77" type="curve"/>
      <point x="1485" y="58"/>
      <point x="1451" y="28"/>
      <point x="1383" y="28" type="curve" smooth="yes"/>
      <point x="1356" y="28"/>
      <point x="1347" y="35"/>
      <point x="1328" y="74" type="curve" smooth="yes"/>
      <point x="1305" y="122"/>
      <point x="1303" y="136"/>
      <point x="1282" y="136" type="curve" smooth="yes"/>
      <point x="1259" y="136"/>
      <point x="1231" y="124"/>
      <point x="1203" y="71" type="curve" smooth="yes"/>
      <point x="1188" y="43"/>
      <point x="1180" y="28"/>
      <point x="1156" y="28" type="curve" smooth="yes"/>
      <point x="1137" y="28"/>
      <point x="1121" y="34"/>
      <point x="1114" y="56" type="curve" smooth="yes"/>
      <point x="1111" y="64"/>
      <point x="1105" y="88"/>
      <point x="1098" y="114" type="curve"/>
      <point x="1068" y="104" type="line"/>
      <point x="1077" y="76"/>
      <point x="1087" y="45"/>
      <point x="1087" y="12" type="curve" smooth="yes"/>
      <point x="1087" y="-30"/>
      <point x="1065" y="-73"/>
      <point x="995" y="-73" type="curve" smooth="yes"/>
      <point x="953" y="-73"/>
      <point x="915" y="-55"/>
      <point x="915" y="-16" type="curve" smooth="yes"/>
      <point x="915" y="-1"/>
      <point x="920" y="20"/>
      <point x="933" y="46" type="curve"/>
      <point x="907" y="58" type="line"/>
      <point x="889" y="23"/>
      <point x="885" y="0"/>
      <point x="885" y="-17" type="curve" smooth="yes"/>
      <point x="885" y="-79"/>
      <point x="936" y="-104"/>
    </contour>
    <contour>
      <point x="800" y="307" type="line"/>
      <point x="830" y="307" type="line"/>
      <point x="822" y="583" type="line"/>
      <point x="792" y="583" type="line"/>
    </contour>
    <contour>
      <point x="1298" y="-7" type="curve" smooth="yes"/>
      <point x="1317" y="-7"/>
      <point x="1335" y="4"/>
      <point x="1344" y="19" type="curve"/>
      <point x="1329" y="41" type="line"/>
      <point x="1309" y="10"/>
      <point x="1257" y="18"/>
      <point x="1225" y="72" type="curve"/>
      <point x="1206" y="52" type="line"/>
      <point x="1239" y="0"/>
      <point x="1273" y="-7"/>
    </contour>
    <contour>
      <point x="1030" y="330" type="curve" smooth="yes"/>
      <point x="1052" y="330"/>
      <point x="1068" y="340"/>
      <point x="1077" y="355" type="curve"/>
      <point x="1061" y="377" type="line"/>
      <point x="1041" y="344"/>
      <point x="984" y="356"/>
      <point x="954" y="425" type="curve"/>
      <point x="935" y="403" type="line"/>
      <point x="967" y="336"/>
      <point x="1007" y="330"/>
    </contour>
    <contour>
      <point x="1167" y="177" type="line"/>
      <point x="1189" y="177" type="line"/>
      <point x="1186" y="258" type="line"/>
      <point x="1164" y="258" type="line"/>
    </contour>
    <contour>
      <point x="1334" y="184" type="line"/>
      <point x="1394" y="184"/>
      <point x="1432" y="219"/>
      <point x="1444" y="247" type="curve"/>
      <point x="1424" y="262"/>
      <point x="1385" y="276"/>
      <point x="1368" y="276" type="curve" smooth="yes"/>
      <point x="1355" y="276"/>
      <point x="1343" y="267"/>
      <point x="1332" y="255" type="curve"/>
      <point x="1345" y="240" type="line"/>
      <point x="1354" y="251"/>
      <point x="1362" y="255"/>
      <point x="1367" y="255" type="curve" smooth="yes"/>
      <point x="1381" y="255"/>
      <point x="1411" y="244"/>
      <point x="1424" y="236" type="curve"/>
      <point x="1425" y="251" type="line"/>
      <point x="1416" y="234"/>
      <point x="1384" y="204"/>
      <point x="1331" y="204" type="curve"/>
    </contour>
    <contour>
      <point x="1206" y="465" type="curve" smooth="yes"/>
      <point x="1236" y="465"/>
      <point x="1255" y="488"/>
      <point x="1255" y="517" type="curve" smooth="yes"/>
      <point x="1255" y="545"/>
      <point x="1234" y="571"/>
      <point x="1208" y="571" type="curve" smooth="yes"/>
      <point x="1181" y="571"/>
      <point x="1160" y="544"/>
      <point x="1160" y="514" type="curve" smooth="yes"/>
      <point x="1160" y="488"/>
      <point x="1175" y="465"/>
    </contour>
    <contour>
      <point x="1206" y="488" type="curve" smooth="yes"/>
      <point x="1189" y="488"/>
      <point x="1180" y="499"/>
      <point x="1180" y="516" type="curve" smooth="yes"/>
      <point x="1180" y="530"/>
      <point x="1190" y="549"/>
      <point x="1207" y="549" type="curve" smooth="yes"/>
      <point x="1222" y="549"/>
      <point x="1234" y="531"/>
      <point x="1234" y="516" type="curve" smooth="yes"/>
      <point x="1234" y="497"/>
      <point x="1222" y="488"/>
    </contour>
    <contour>
      <point x="1559" y="-84" type="line"/>
      <point x="1608" y="-86"/>
      <point x="1678" y="-74"/>
      <point x="1683" y="10" type="curve"/>
      <point x="1691" y="1"/>
      <point x="1704" y="-2"/>
      <point x="1717" y="-2" type="curve" smooth="yes"/>
      <point x="1775" y="-2"/>
      <point x="1785" y="28"/>
      <point x="1783" y="83" type="curve" smooth="yes"/>
      <point x="1776" y="267" type="line"/>
      <point x="1745" y="267" type="line"/>
      <point x="1752" y="89" type="line" smooth="yes"/>
      <point x="1754" y="41"/>
      <point x="1754" y="28"/>
      <point x="1717" y="28" type="curve" smooth="yes"/>
      <point x="1704" y="28"/>
      <point x="1687" y="30"/>
      <point x="1680" y="53" type="curve" smooth="yes"/>
      <point x="1677" y="63"/>
      <point x="1666" y="107"/>
      <point x="1660" y="132" type="curve"/>
      <point x="1630" y="126" type="line"/>
      <point x="1637" y="98"/>
      <point x="1646" y="69"/>
      <point x="1652" y="35" type="curve" smooth="yes"/>
      <point x="1666" y="-39"/>
      <point x="1608" y="-56"/>
      <point x="1558" y="-55" type="curve"/>
    </contour>
    <contour>
      <point x="1664" y="246" type="curve" smooth="yes"/>
      <point x="1676" y="246"/>
      <point x="1686" y="257"/>
      <point x="1686" y="269" type="curve" smooth="yes"/>
      <point x="1686" y="280"/>
      <point x="1676" y="291"/>
      <point x="1664" y="291" type="curve" smooth="yes"/>
      <point x="1651" y="291"/>
      <point x="1641" y="280"/>
      <point x="1641" y="269" type="curve" smooth="yes"/>
      <point x="1641" y="257"/>
      <point x="1651" y="246"/>
    </contour>
    <contour>
      <point x="1844" y="0" type="line"/>
      <point x="1874" y="0" type="line"/>
      <point x="1868" y="267" type="line"/>
      <point x="1837" y="267" type="line"/>
    </contour>
    <contour>
      <point x="1810" y="301" type="curve" smooth="yes"/>
      <point x="1858" y="301"/>
      <point x="1872" y="326"/>
      <point x="1872" y="345" type="curve" smooth="yes"/>
      <point x="1872" y="368"/>
      <point x="1854" y="379"/>
      <point x="1836" y="379" type="curve" smooth="yes"/>
      <point x="1804" y="379"/>
      <point x="1781" y="347"/>
      <point x="1769" y="321" type="curve"/>
      <point x="1763" y="322"/>
      <point x="1756" y="323"/>
      <point x="1751" y="324" type="curve"/>
      <point x="1750" y="306" type="line"/>
      <point x="1762" y="304"/>
      <point x="1792" y="301"/>
    </contour>
    <contour>
      <point x="1811" y="319" type="curve" smooth="yes"/>
      <point x="1804" y="319"/>
      <point x="1799" y="319"/>
      <point x="1790" y="320" type="curve"/>
      <point x="1803" y="346"/>
      <point x="1820" y="359"/>
      <point x="1834" y="359" type="curve" smooth="yes"/>
      <point x="1842" y="359"/>
      <point x="1851" y="356"/>
      <point x="1851" y="342" type="curve" smooth="yes"/>
      <point x="1851" y="329"/>
      <point x="1838" y="319"/>
    </contour>
  </outline>
</glyph>
<glyph name="_part.haa" format="2">
  <advance width="777.5"/>
  <outline>
    <contour>
      <point x="51" y="-30" type="curve"/>
      <point x="69" y="-50"/>
      <point x="93" y="-71"/>
      <point x="113" y="-87" type="curve"/>
      <point x="211" y="25"/>
      <point x="301" y="129"/>
      <point x="349" y="185" type="curve" smooth="yes"/>
      <point x="397" y="242"/>
      <point x="413" y="269"/>
      <point x="413" y="303" type="curve" smooth="yes"/>
      <point x="413" y="343"/>
      <point x="386" y="367"/>
      <point x="353" y="367" type="curve" smooth="yes"/>
      <point x="313" y="367"/>
      <point x="286" y="343"/>
      <point x="286" y="310" type="curve" smooth="yes"/>
      <point x="286" y="286"/>
      <point x="300" y="263"/>
      <point x="328" y="251" type="curve"/>
      <point x="331" y="281" type="line"/>
      <point x="314" y="261"/>
      <point x="294" y="238"/>
      <point x="270" y="212" type="curve" smooth="yes"/>
      <point x="216" y="153"/>
      <point x="114" y="40"/>
    </contour>
  </outline>
</glyph>
<glyph name="_part.jav" format="2">
  <advance width="523.125"/>
  <outline>
    <contour>
      <point x="428" y="544" type="line"/>
      <point x="399" y="513"/>
      <point x="373" y="488"/>
      <point x="346" y="463" type="curve"/>
      <point x="334" y="410" type="line"/>
      <point x="387" y="382"/>
      <point x="435" y="344"/>
      <point x="450" y="299" type="curve"/>
      <point x="474" y="349" type="line"/>
      <point x="447" y="318"/>
      <point x="398" y="303"/>
      <point x="349" y="303" type="curve" smooth="yes"/>
      <point x="316" y="303"/>
      <point x="282" y="306"/>
      <point x="250" y="315" type="curve"/>
      <point x="250" y="231" type="line"/>
      <point x="278" y="226"/>
      <point x="305" y="225"/>
      <point x="323" y="225" type="curve" smooth="yes"/>
      <point x="396" y="225"/>
      <point x="461" y="242"/>
      <point x="490" y="270" type="curve"/>
      <point x="500" y="288"/>
      <point x="511" y="313"/>
      <point x="511" y="328" type="curve" smooth="yes"/>
      <point x="511" y="361"/>
      <point x="469" y="415"/>
      <point x="396" y="458" type="curve"/>
      <point x="401" y="415" type="line"/>
      <point x="430" y="445"/>
      <point x="451" y="467"/>
      <point x="480" y="499" type="curve"/>
    </contour>
  </outline>
</glyph>
<glyph name="allah-ar" format="2">
  <advance width="1164.75"/>
  <outline>
    <contour>
      <point x="443" y="-5" type="curve" smooth="yes"/>
      <point x="523" y="-5"/>
      <point x="559" y="20"/>
      <point x="581" y="66" type="curve"/>
      <point x="601" y="21"/>
      <point x="644" y="-5"/>
      <point x="706" y="-5" type="curve" smooth="yes"/>
      <point x="865" y="-5"/>
      <point x="886" y="57"/>
      <point x="881" y="177" type="curve" smooth="yes"/>
      <point x="864" y="654" type="line"/>
      <point x="785" y="654" type="line"/>
      <point x="801" y="183" type="line" smooth="yes"/>
      <point x="804" y="92"/>
      <point x="797" y="66"/>
      <point x="714" y="66" type="curve" smooth="yes"/>
      <point x="637" y="66"/>
      <point x="622" y="94"/>
      <point x="619" y="200" type="curve" smooth="yes"/>
      <point x="610" y="543" type="line"/>
      <point x="530" y="543" type="line"/>
      <point x="538" y="199" type="line" smooth="yes"/>
      <point x="541" y="106"/>
      <point x="538" y="66"/>
      <point x="452" y="66" type="curve" smooth="yes"/>
      <point x="374" y="66"/>
      <point x="359" y="85"/>
      <point x="356" y="160" type="curve" smooth="yes"/>
      <point x="341" y="512" type="line"/>
      <point x="264" y="512" type="line"/>
      <point x="268" y="404" type="line"/>
      <point x="137" y="377"/>
      <point x="41" y="296"/>
      <point x="41" y="195" type="curve" smooth="yes"/>
      <point x="41" y="88"/>
      <point x="163" y="51"/>
      <point x="292" y="76" type="curve"/>
      <point x="313" y="11"/>
      <point x="366" y="-5"/>
    </contour>
    <contour>
      <point x="280" y="139" type="line"/>
      <point x="205" y="123"/>
      <point x="117" y="139"/>
      <point x="117" y="201" type="curve" smooth="yes"/>
      <point x="117" y="262"/>
      <point x="189" y="321"/>
      <point x="271" y="336" type="curve"/>
    </contour>
    <contour>
      <point x="1028" y="-1" type="line"/>
      <point x="1108" y="-1" type="line"/>
      <point x="1091" y="654" type="line"/>
      <point x="1011" y="654" type="line"/>
    </contour>
    <contour>
      <point x="504" y="582" type="curve" smooth="yes"/>
      <point x="541" y="582"/>
      <point x="565" y="613"/>
      <point x="565" y="658" type="curve"/>
      <point x="552" y="661" type="line"/>
      <point x="552" y="628"/>
      <point x="574" y="609"/>
      <point x="602" y="609" type="curve" smooth="yes"/>
      <point x="649" y="609"/>
      <point x="668" y="642"/>
      <point x="668" y="686" type="curve" smooth="yes"/>
      <point x="668" y="710"/>
      <point x="661" y="740"/>
      <point x="652" y="758" type="curve"/>
      <point x="616" y="749" type="line"/>
      <point x="623" y="730"/>
      <point x="628" y="709"/>
      <point x="628" y="687" type="curve" smooth="yes"/>
      <point x="628" y="662"/>
      <point x="621" y="646"/>
      <point x="600" y="646" type="curve" smooth="yes"/>
      <point x="583" y="646"/>
      <point x="575" y="657"/>
      <point x="575" y="673" type="curve"/>
      <point x="575" y="734" type="line"/>
      <point x="539" y="724" type="line"/>
      <point x="539" y="682" type="line"/>
      <point x="539" y="635"/>
      <point x="525" y="620"/>
      <point x="509" y="620" type="curve" smooth="yes"/>
      <point x="490" y="620"/>
      <point x="483" y="636"/>
      <point x="483" y="659" type="curve" smooth="yes"/>
      <point x="483" y="671"/>
      <point x="485" y="688"/>
      <point x="488" y="709" type="curve"/>
      <point x="449" y="701" type="line"/>
      <point x="446" y="683"/>
      <point x="444" y="668"/>
      <point x="444" y="656" type="curve" smooth="yes"/>
      <point x="444" y="613"/>
      <point x="459" y="582"/>
    </contour>
    <contour>
      <point x="528" y="776" type="line"/>
      <point x="576" y="776" type="line"/>
      <point x="572" y="912" type="line"/>
      <point x="524" y="912" type="line"/>
    </contour>
  </outline>
</glyph>
<glyph name="dotabove" format="2">
  <anchor x="308" y="554" name="_top"/>
  <outline>
    <contour>
      <point x="312" y="580" type="curve" smooth="yes"/>
      <point x="335" y="580"/>
      <point x="347" y="589"/>
      <point x="347" y="618" type="curve" smooth="yes"/>
      <point x="347" y="646"/>
      <point x="336" y="655"/>
      <point x="308" y="655" type="curve" smooth="yes"/>
      <point x="282" y="655"/>
      <point x="271" y="641"/>
      <point x="271" y="610" type="curve" smooth="yes"/>
      <point x="271" y="587"/>
      <point x="285" y="580"/>
    </contour>
  </outline>
</glyph>
<glyph name="dotbelow" format="2">
  <anchor x="328" y="0" name="_bottom"/>
  <outline>
    <contour>
      <point x="333" y="-115" type="curve" smooth="yes"/>
      <point x="357" y="-115"/>
      <point x="368" y="-106"/>
      <point x="368" y="-77" type="curve" smooth="yes"/>
      <point x="368" y="-49"/>
      <point x="357" y="-39"/>
      <point x="330" y="-39" type="curve" smooth="yes"/>
      <point x="304" y="-39"/>
      <point x="292" y="-54"/>
      <point x="292" y="-84" type="curve" smooth="yes"/>
      <point x="292" y="-108"/>
      <point x="306" y="-115"/>
    </contour>
  </outline>
</glyph>
